<?xml version="1.0" encoding="UTF-8"?>
<!DOCTYPE svg PUBLIC "-//W3C//DTD SVG 1.1//EN" "http://www.w3.org/Graphics/SVG/1.1/DTD/svg11.dtd">
<svg version="1.2" width="120mm" height="60mm" viewBox="0 0 12000 6000" preserveAspectRatio="xMidYMid" fill-rule="evenodd" stroke-width="28.222" stroke-linejoin="round" xmlns="http://www.w3.org/2000/svg" xmlns:ooo="http://xml.openoffice.org/svg/export" xmlns:xlink="http://www.w3.org/1999/xlink" xmlns:presentation="http://sun.com/xmlns/staroffice/presentation" xmlns:smil="http://www.w3.org/2001/SMIL20/" xmlns:anim="urn:oasis:names:tc:opendocument:xmlns:animation:1.0" xml:space="preserve">
 <defs class="ClipPathGroup">
  <clipPath id="presentation_clip_path" clipPathUnits="userSpaceOnUse">
   <rect x="0" y="0" width="12000" height="6000"/>
  </clipPath>
  <clipPath id="presentation_clip_path_shrink" clipPathUnits="userSpaceOnUse">
   <rect x="12" y="6" width="11976" height="5988"/>
  </clipPath>
 </defs>
 <defs class="TextShapeIndex">
  <g ooo:slide="id1" ooo:id-list="id3 id4"/>
 </defs>
 <defs class="EmbeddedBulletChars">
  <g id="bullet-char-template-57356" transform="scale(0.00048828125,-0.00048828125)">
   <path d="M 580,1141 L 1163,571 580,0 -4,571 580,1141 Z"/>
  </g>
  <g id="bullet-char-template-57354" transform="scale(0.00048828125,-0.00048828125)">
   <path d="M 8,1128 L 1137,1128 1137,0 8,0 8,1128 Z"/>
  </g>
  <g id="bullet-char-template-10146" transform="scale(0.00048828125,-0.00048828125)">
   <path d="M 174,0 L 602,739 174,1481 1456,739 174,0 Z M 1358,739 L 309,1346 659,739 1358,739 Z"/>
  </g>
  <g id="bullet-char-template-10132" transform="scale(0.00048828125,-0.00048828125)">
   <path d="M 2015,739 L 1276,0 717,0 1260,543 174,543 174,936 1260,936 717,1481 1274,1481 2015,739 Z"/>
  </g>
  <g id="bullet-char-template-10007" transform="scale(0.00048828125,-0.00048828125)">
   <path d="M 0,-2 C -7,14 -16,27 -25,37 L 356,567 C 262,823 215,952 215,954 215,979 228,992 255,992 264,992 276,990 289,987 310,991 331,999 354,1012 L 381,999 492,748 772,1049 836,1024 860,1049 C 881,1039 901,1025 922,1006 886,937 835,863 770,784 769,783 710,716 594,584 L 774,223 C 774,196 753,168 711,139 L 727,119 C 717,90 699,76 672,76 641,76 570,178 457,381 L 164,-76 C 142,-110 111,-127 72,-127 30,-127 9,-110 8,-76 1,-67 -2,-52 -2,-32 -2,-23 -1,-13 0,-2 Z"/>
  </g>
  <g id="bullet-char-template-10004" transform="scale(0.00048828125,-0.00048828125)">
   <path d="M 285,-33 C 182,-33 111,30 74,156 52,228 41,333 41,471 41,549 55,616 82,672 116,743 169,778 240,778 293,778 328,747 346,684 L 369,508 C 377,444 397,411 428,410 L 1163,1116 C 1174,1127 1196,1133 1229,1133 1271,1133 1292,1118 1292,1087 L 1292,965 C 1292,929 1282,901 1262,881 L 442,47 C 390,-6 338,-33 285,-33 Z"/>
  </g>
  <g id="bullet-char-template-9679" transform="scale(0.00048828125,-0.00048828125)">
   <path d="M 813,0 C 632,0 489,54 383,161 276,268 223,411 223,592 223,773 276,916 383,1023 489,1130 632,1184 813,1184 992,1184 1136,1130 1245,1023 1353,916 1407,772 1407,592 1407,412 1353,268 1245,161 1136,54 992,0 813,0 Z"/>
  </g>
  <g id="bullet-char-template-8226" transform="scale(0.00048828125,-0.00048828125)">
   <path d="M 346,457 C 273,457 209,483 155,535 101,586 74,649 74,723 74,796 101,859 155,911 209,963 273,989 346,989 419,989 480,963 531,910 582,859 608,796 608,723 608,648 583,586 532,535 482,483 420,457 346,457 Z"/>
  </g>
  <g id="bullet-char-template-8211" transform="scale(0.00048828125,-0.00048828125)">
   <path d="M -4,459 L 1135,459 1135,606 -4,606 -4,459 Z"/>
  </g>
  <g id="bullet-char-template-61548" transform="scale(0.00048828125,-0.00048828125)">
   <path d="M 173,740 C 173,903 231,1043 346,1159 462,1274 601,1332 765,1332 928,1332 1067,1274 1183,1159 1299,1043 1357,903 1357,740 1357,577 1299,437 1183,322 1067,206 928,148 765,148 601,148 462,206 346,322 231,437 173,577 173,740 Z"/>
  </g>
 </defs>
 <g>
  <g id="id2" class="Master_Slide">
   <g id="bg-id2" class="Background"/>
   <g id="bo-id2" class="BackgroundObjects"/>
  </g>
 </g>
 <g class="SlideGroup">
  <g>
   <g id="container-id1">
    <g id="id1" class="Slide" clip-path="url(#presentation_clip_path)">
     <g class="Page">
      <g class="com.sun.star.drawing.ClosedBezierShape">
       <g id="id3">
        <rect class="BoundingBox" stroke="none" fill="none" x="4000" y="1000" width="4001" height="4001"/>
        <path fill="rgb(0,0,0)" stroke="none" d="M 7248,3000 C 7248,2971 7247,2940 7245,2911 L 8000,2911 8000,3000 8000,3089 7245,3089 C 7247,3060 7248,3030 7248,3000 Z M 6000,1753 C 5971,1753 5940,1754 5911,1756 L 5911,1000 6000,1000 6089,1000 6089,1756 C 6060,1754 6030,1753 6000,1753 Z M 4753,3001 C 4753,3030 4754,3060 4756,3089 L 4000,3089 4000,3000 4000,2911 4756,2911 C 4754,2940 4753,2971 4753,3001 Z M 6000,4248 C 6030,4248 6060,4247 6089,4245 L 6089,5000 6000,5000 5911,5000 5911,4245 C 5940,4247 5971,4248 6000,4248 Z"/>
       </g>
      </g>
      <g class="com.sun.star.drawing.ClosedBezierShape">
       <g id="id4">
        <rect class="BoundingBox" stroke="none" fill="none" x="4755" y="1755" width="2490" height="2490"/>
        <path fill="rgb(0,0,0)" stroke="none" d="M 6734,3426 C 6660,3554 6554,3660 6426,3734 6322,3794 6208,3831 6089,3843 L 6089,3089 6843,3089 C 6831,3208 6794,3322 6734,3426 Z M 5583,3734 C 5455,3660 5349,3554 5275,3426 5215,3322 5178,3208 5166,3089 L 5911,3089 5911,3842 C 5796,3829 5684,3792 5583,3734 Z M 5275,2583 C 5349,2455 5455,2349 5583,2275 5684,2217 5796,2180 5911,2167 L 5911,2911 5167,2911 C 5180,2796 5217,2684 5275,2583 Z M 6426,2275 C 6554,2349 6660,2455 6734,2583 6792,2684 6829,2796 6842,2911 L 6089,2911 6089,2166 C 6208,2178 6322,2215 6426,2275 Z M 6917,3531 C 6995,3396 7041,3245 7054,3089 L 7244,3089 C 7239,3168 7226,3247 7206,3323 7177,3428 7136,3529 7081,3624 7026,3719 6959,3806 6882,3882 6806,3959 6719,4026 6624,4081 6529,4136 6428,4177 6323,4206 6247,4226 6168,4239 6089,4244 L 6089,4054 C 6245,4041 6396,3995 6531,3917 6691,3824 6824,3691 6917,3531 Z M 6917,2478 C 6824,2318 6691,2185 6531,2093 6396,2015 6245,1967 6089,1955 L 6089,1756 C 6168,1762 6247,1775 6323,1796 6428,1823 6529,1865 6624,1920 6719,1975 6806,2041 6882,2118 6959,2195 7026,2281 7081,2377 7136,2472 7177,2573 7206,2677 7226,2754 7239,2831 7244,2911 L 7053,2911 C 7040,2759 6993,2611 6917,2478 Z M 5478,2093 C 5318,2185 5185,2318 5093,2478 5016,2611 4969,2759 4956,2911 L 4756,2911 C 4762,2831 4775,2754 4796,2677 4823,2573 4865,2472 4920,2377 4975,2281 5041,2195 5118,2118 5195,2041 5281,1975 5377,1920 5472,1865 5573,1823 5677,1796 5754,1775 5831,1762 5911,1756 L 5911,1956 C 5759,1969 5611,2016 5478,2093 Z M 5093,3531 C 5185,3691 5318,3824 5478,3917 5611,3993 5759,4040 5911,4053 L 5911,4244 C 5831,4239 5754,4226 5677,4206 5573,4177 5472,4136 5377,4081 5281,4026 5195,3959 5118,3882 5041,3806 4975,3719 4920,3624 4865,3529 4823,3428 4796,3323 4775,3247 4762,3168 4756,3089 L 4955,3089 C 4967,3245 5015,3396 5093,3531 Z"/>
       </g>
      </g>
     </g>
    </g>
   </g>
  </g>
 </g>
</svg>