<?xml version="1.0" encoding="UTF-8"?>
<!DOCTYPE svg PUBLIC "-//W3C//DTD SVG 1.1//EN" "http://www.w3.org/Graphics/SVG/1.1/DTD/svg11.dtd">
<svg version="1.2" width="150mm" height="75mm" viewBox="0 0 15000 7500" preserveAspectRatio="xMidYMid" fill-rule="evenodd" stroke-width="28.222" stroke-linejoin="round" xmlns="http://www.w3.org/2000/svg" xmlns:ooo="http://xml.openoffice.org/svg/export" xmlns:xlink="http://www.w3.org/1999/xlink" xmlns:presentation="http://sun.com/xmlns/staroffice/presentation" xmlns:smil="http://www.w3.org/2001/SMIL20/" xmlns:anim="urn:oasis:names:tc:opendocument:xmlns:animation:1.0" xml:space="preserve">
 <defs class="ClipPathGroup">
  <clipPath id="presentation_clip_path" clipPathUnits="userSpaceOnUse">
   <rect x="0" y="0" width="15000" height="7500"/>
  </clipPath>
  <clipPath id="presentation_clip_path_shrink" clipPathUnits="userSpaceOnUse">
   <rect x="15" y="7" width="14970" height="7485"/>
  </clipPath>
 </defs>
 <defs class="TextShapeIndex">
  <g ooo:slide="id1" ooo:id-list="id3 id4 id5"/>
 </defs>
 <defs class="EmbeddedBulletChars">
  <g id="bullet-char-template-57356" transform="scale(0.00048828125,-0.00048828125)">
   <path d="M 580,1141 L 1163,571 580,0 -4,571 580,1141 Z"/>
  </g>
  <g id="bullet-char-template-57354" transform="scale(0.00048828125,-0.00048828125)">
   <path d="M 8,1128 L 1137,1128 1137,0 8,0 8,1128 Z"/>
  </g>
  <g id="bullet-char-template-10146" transform="scale(0.00048828125,-0.00048828125)">
   <path d="M 174,0 L 602,739 174,1481 1456,739 174,0 Z M 1358,739 L 309,1346 659,739 1358,739 Z"/>
  </g>
  <g id="bullet-char-template-10132" transform="scale(0.00048828125,-0.00048828125)">
   <path d="M 2015,739 L 1276,0 717,0 1260,543 174,543 174,936 1260,936 717,1481 1274,1481 2015,739 Z"/>
  </g>
  <g id="bullet-char-template-10007" transform="scale(0.00048828125,-0.00048828125)">
   <path d="M 0,-2 C -7,14 -16,27 -25,37 L 356,567 C 262,823 215,952 215,954 215,979 228,992 255,992 264,992 276,990 289,987 310,991 331,999 354,1012 L 381,999 492,748 772,1049 836,1024 860,1049 C 881,1039 901,1025 922,1006 886,937 835,863 770,784 769,783 710,716 594,584 L 774,223 C 774,196 753,168 711,139 L 727,119 C 717,90 699,76 672,76 641,76 570,178 457,381 L 164,-76 C 142,-110 111,-127 72,-127 30,-127 9,-110 8,-76 1,-67 -2,-52 -2,-32 -2,-23 -1,-13 0,-2 Z"/>
  </g>
  <g id="bullet-char-template-10004" transform="scale(0.00048828125,-0.00048828125)">
   <path d="M 285,-33 C 182,-33 111,30 74,156 52,228 41,333 41,471 41,549 55,616 82,672 116,743 169,778 240,778 293,778 328,747 346,684 L 369,508 C 377,444 397,411 428,410 L 1163,1116 C 1174,1127 1196,1133 1229,1133 1271,1133 1292,1118 1292,1087 L 1292,965 C 1292,929 1282,901 1262,881 L 442,47 C 390,-6 338,-33 285,-33 Z"/>
  </g>
  <g id="bullet-char-template-9679" transform="scale(0.00048828125,-0.00048828125)">
   <path d="M 813,0 C 632,0 489,54 383,161 276,268 223,411 223,592 223,773 276,916 383,1023 489,1130 632,1184 813,1184 992,1184 1136,1130 1245,1023 1353,916 1407,772 1407,592 1407,412 1353,268 1245,161 1136,54 992,0 813,0 Z"/>
  </g>
  <g id="bullet-char-template-8226" transform="scale(0.00048828125,-0.00048828125)">
   <path d="M 346,457 C 273,457 209,483 155,535 101,586 74,649 74,723 74,796 101,859 155,911 209,963 273,989 346,989 419,989 480,963 531,910 582,859 608,796 608,723 608,648 583,586 532,535 482,483 420,457 346,457 Z"/>
  </g>
  <g id="bullet-char-template-8211" transform="scale(0.00048828125,-0.00048828125)">
   <path d="M -4,459 L 1135,459 1135,606 -4,606 -4,459 Z"/>
  </g>
  <g id="bullet-char-template-61548" transform="scale(0.00048828125,-0.00048828125)">
   <path d="M 173,740 C 173,903 231,1043 346,1159 462,1274 601,1332 765,1332 928,1332 1067,1274 1183,1159 1299,1043 1357,903 1357,740 1357,577 1299,437 1183,322 1067,206 928,148 765,148 601,148 462,206 346,322 231,437 173,577 173,740 Z"/>
  </g>
 </defs>
 <g>
  <g id="id2" class="Master_Slide">
   <g id="bg-id2" class="Background"/>
   <g id="bo-id2" class="BackgroundObjects"/>
  </g>
 </g>
 <g class="SlideGroup">
  <g>
   <g id="container-id1">
    <g id="id1" class="Slide" clip-path="url(#presentation_clip_path)">
     <g class="Page">
      <g class="com.sun.star.drawing.CustomShape">
       <g id="id3">
        <rect class="BoundingBox" stroke="none" fill="none" x="4999" y="5117" width="3464" height="533"/>
        <path fill="rgb(0,0,0)" stroke="none" d="M 5366,5298 L 5365,5188 5365,5180 5365,5173 5364,5168 5364,5165 5363,5162 5362,5159 5362,5158 5361,5156 5360,5154 5359,5152 5358,5151 5358,5151 5357,5150 5356,5149 5356,5149 5355,5148 5353,5147 5352,5146 5350,5145 5348,5144 5346,5143 5343,5143 5341,5142 5338,5142 5325,5141 5318,5141 5310,5141 5310,5121 5316,5121 5324,5122 5334,5122 5345,5122 5393,5122 5441,5122 5453,5122 5462,5122 5469,5121 5475,5121 5475,5141 5459,5142 5452,5142 5446,5143 5443,5143 5441,5144 5438,5145 5436,5145 5434,5146 5432,5147 5431,5147 5431,5148 5430,5148 5429,5149 5428,5151 5426,5152 5425,5154 5424,5156 5423,5157 5422,5158 5421,5161 5421,5163 5420,5168 5420,5174 5419,5180 5419,5188 5421,5448 5421,5456 5421,5464 5422,5471 5422,5474 5423,5476 5424,5479 5424,5481 5425,5484 5426,5486 5427,5487 5428,5489 5430,5490 5431,5492 5433,5493 5435,5495 5437,5496 5439,5496 5441,5497 5444,5498 5446,5498 5449,5499 5452,5500 5455,5500 5462,5501 5470,5501 5478,5501 5478,5520 5472,5520 5465,5520 5456,5519 5445,5519 5396,5519 5348,5519 5337,5519 5327,5520 5319,5520 5313,5520 5313,5501 5322,5501 5329,5500 5336,5499 5342,5498 5345,5497 5347,5497 5350,5496 5352,5496 5354,5495 5355,5494 5356,5493 5357,5493 5357,5492 5358,5491 5359,5490 5360,5488 5361,5487 5362,5486 5363,5483 5364,5481 5365,5478 5365,5476 5366,5474 5367,5471 5367,5468 5368,5462 5368,5455 5367,5447 5367,5325 5111,5325 5112,5446 5112,5463 5112,5469 5113,5472 5113,5475 5113,5477 5114,5479 5115,5482 5116,5484 5117,5486 5118,5487 5120,5488 5121,5490 5122,5491 5122,5491 5123,5492 5124,5493 5125,5494 5127,5495 5129,5496 5132,5497 5134,5497 5137,5498 5140,5499 5143,5499 5150,5500 5158,5500 5168,5500 5168,5520 5161,5520 5154,5520 5144,5519 5133,5519 5085,5519 5037,5519 5017,5519 5009,5519 5006,5520 5003,5520 5002,5500 5010,5500 5017,5500 5025,5499 5028,5499 5031,5498 5034,5497 5036,5497 5039,5496 5041,5495 5043,5494 5045,5493 5046,5491 5048,5490 5049,5488 5051,5487 5052,5486 5053,5483 5055,5481 5056,5478 5056,5476 5057,5474 5058,5471 5058,5468 5058,5462 5058,5455 5058,5446 5056,5190 5056,5182 5056,5176 5055,5169 5055,5167 5054,5164 5053,5161 5053,5159 5052,5158 5050,5156 5049,5154 5048,5153 5046,5151 5045,5150 5043,5149 5042,5147 5040,5147 5038,5146 5036,5145 5033,5144 5031,5143 5028,5143 5022,5142 5015,5142 5000,5141 5000,5121 5006,5122 5014,5122 5023,5123 5033,5123 5081,5123 5129,5123 5140,5123 5150,5122 5158,5122 5165,5121 5165,5141 5156,5141 5149,5142 5142,5142 5136,5143 5133,5143 5131,5144 5128,5145 5126,5146 5124,5147 5122,5147 5121,5148 5119,5149 5118,5151 5117,5152 5116,5154 5115,5156 5114,5158 5113,5160 5113,5162 5112,5165 5111,5168 5111,5170 5110,5176 5110,5183 5110,5190 5111,5298 5366,5298 Z M 5808,5392 L 5808,5398 5807,5405 5806,5412 5805,5419 5804,5425 5802,5432 5800,5438 5797,5445 5794,5451 5791,5456 5787,5462 5784,5468 5780,5473 5776,5478 5772,5484 5767,5488 5762,5493 5757,5496 5752,5501 5746,5505 5739,5508 5733,5511 5727,5515 5721,5517 5715,5520 5708,5522 5701,5524 5694,5526 5687,5527 5680,5527 5673,5528 5666,5528 5658,5528 5651,5527 5643,5527 5636,5527 5629,5525 5622,5524 5615,5521 5608,5519 5601,5516 5595,5514 5588,5511 5582,5507 5576,5504 5570,5500 5565,5496 5560,5492 5555,5487 5550,5483 5546,5478 5542,5473 5538,5467 5534,5462 5531,5456 5528,5450 5525,5444 5522,5437 5520,5431 5518,5424 5517,5416 5516,5409 5515,5402 5515,5394 5515,5388 5516,5381 5517,5374 5518,5367 5519,5361 5521,5354 5524,5348 5526,5342 5529,5335 5532,5330 5535,5323 5538,5318 5542,5312 5546,5308 5550,5302 5555,5298 5560,5293 5565,5289 5570,5285 5575,5281 5581,5277 5587,5274 5593,5270 5599,5268 5605,5265 5612,5263 5619,5261 5626,5260 5633,5259 5641,5258 5648,5257 5656,5257 5664,5257 5671,5258 5679,5258 5686,5259 5694,5260 5701,5261 5708,5264 5715,5266 5722,5269 5729,5271 5736,5274 5742,5278 5748,5281 5753,5285 5759,5289 5764,5293 5769,5298 5773,5302 5778,5308 5782,5312 5786,5318 5790,5324 5793,5330 5797,5336 5800,5342 5802,5349 5804,5355 5805,5363 5806,5369 5807,5376 5808,5384 5808,5392 Z M 5750,5397 L 5750,5388 5749,5378 5746,5368 5744,5358 5741,5348 5739,5342 5737,5338 5735,5332 5733,5328 5731,5323 5728,5319 5725,5315 5722,5311 5719,5307 5716,5303 5712,5300 5708,5296 5704,5292 5700,5290 5695,5287 5690,5284 5685,5282 5680,5281 5675,5280 5670,5279 5664,5278 5658,5278 5652,5278 5647,5279 5641,5280 5636,5281 5631,5282 5627,5284 5622,5286 5618,5289 5614,5291 5610,5294 5607,5297 5603,5301 5600,5304 5597,5307 5595,5311 5592,5315 5589,5320 5587,5323 5585,5328 5583,5332 5581,5337 5580,5342 5578,5346 5577,5351 5576,5355 5575,5360 5574,5370 5573,5379 5573,5388 5573,5397 5575,5406 5576,5416 5578,5426 5579,5432 5581,5436 5583,5442 5585,5446 5587,5451 5589,5455 5594,5465 5597,5469 5600,5474 5603,5478 5606,5482 5610,5486 5614,5489 5619,5493 5623,5496 5627,5498 5632,5501 5637,5503 5642,5505 5647,5506 5652,5506 5658,5507 5664,5507 5670,5507 5675,5506 5681,5506 5686,5505 5690,5503 5695,5501 5699,5499 5703,5496 5707,5494 5711,5491 5714,5488 5718,5485 5721,5481 5724,5478 5727,5474 5730,5470 5733,5465 5735,5462 5737,5457 5739,5453 5741,5448 5742,5444 5744,5439 5745,5434 5747,5425 5749,5415 5750,5406 5750,5402 5750,5397 Z M 5937,5309 L 5941,5303 5944,5299 5948,5294 5953,5290 5957,5285 5962,5281 5968,5276 5973,5272 5979,5269 5984,5266 5989,5263 5995,5260 6000,5259 6005,5258 6008,5258 6010,5257 6013,5257 6015,5257 6018,5257 6021,5257 6024,5258 6027,5259 6030,5260 6034,5260 6038,5262 6041,5264 6043,5265 6044,5266 6046,5268 6047,5269 6048,5270 6049,5271 6050,5272 6051,5274 6052,5276 6052,5278 6053,5280 6053,5281 6054,5283 6054,5285 6054,5289 6054,5292 6053,5295 6053,5297 6053,5298 6052,5300 6052,5301 6051,5302 6050,5303 6049,5305 6049,5306 6048,5307 6046,5309 6045,5310 6044,5311 6041,5312 6039,5314 6036,5316 6033,5317 6031,5318 6029,5319 6028,5319 6026,5320 6025,5320 6023,5320 6022,5320 6020,5320 6018,5320 6016,5319 6014,5319 6012,5319 6011,5318 6009,5318 6008,5317 6005,5316 6003,5315 6000,5313 5999,5313 5998,5312 5990,5308 5988,5307 5987,5306 5986,5306 5985,5306 5984,5305 5984,5305 5983,5305 5983,5305 5982,5305 5980,5305 5978,5305 5976,5305 5974,5306 5972,5306 5971,5307 5969,5308 5967,5309 5963,5311 5960,5313 5958,5314 5956,5316 5954,5317 5952,5319 5951,5321 5949,5322 5948,5323 5946,5325 5945,5327 5943,5330 5942,5332 5941,5333 5940,5335 5940,5338 5939,5340 5939,5342 5938,5344 5938,5347 5938,5349 5938,5352 5939,5464 5939,5474 5939,5479 5940,5481 5940,5483 5940,5485 5941,5486 5942,5488 5943,5489 5944,5491 5945,5492 5947,5494 5948,5495 5949,5496 5950,5496 5952,5496 5954,5497 5957,5497 5959,5498 5962,5498 5968,5499 5975,5500 5983,5500 5992,5501 6003,5501 6003,5520 5996,5520 5988,5520 5978,5519 5968,5519 5923,5519 5877,5519 5866,5519 5856,5520 5848,5520 5841,5520 5841,5500 5849,5500 5855,5500 5866,5499 5868,5499 5870,5498 5872,5498 5874,5497 5876,5497 5877,5496 5877,5496 5878,5496 5879,5496 5879,5496 5880,5495 5881,5494 5881,5494 5882,5492 5883,5491 5884,5489 5884,5488 5885,5486 5886,5485 5886,5483 5886,5481 5887,5479 5887,5474 5887,5463 5886,5340 5886,5328 5885,5322 5885,5318 5884,5314 5883,5311 5883,5310 5882,5308 5882,5307 5881,5306 5880,5305 5879,5304 5878,5303 5877,5303 5876,5302 5875,5301 5873,5301 5871,5301 5868,5300 5863,5300 5858,5299 5853,5299 5852,5283 5862,5281 5871,5280 5880,5277 5884,5276 5888,5274 5896,5270 5900,5269 5904,5267 5907,5265 5911,5263 5915,5260 5918,5258 5939,5258 5938,5270 5937,5277 5937,5283 5937,5309 Z M 6168,5258 L 6167,5264 6167,5270 6166,5282 6166,5287 6166,5291 6166,5300 6173,5296 6179,5291 6191,5283 6197,5280 6204,5276 6210,5272 6216,5270 6222,5267 6229,5264 6235,5262 6242,5260 6249,5259 6252,5259 6256,5258 6259,5258 6263,5257 6266,5257 6270,5257 6280,5257 6289,5259 6293,5260 6297,5260 6301,5261 6304,5262 6308,5264 6311,5266 6314,5268 6318,5270 6320,5272 6323,5275 6325,5278 6327,5281 6331,5287 6334,5293 6337,5300 6339,5307 6341,5314 6342,5322 6343,5331 6343,5339 6344,5463 6344,5467 6345,5472 6345,5476 6346,5480 6347,5484 6350,5487 6350,5488 6351,5490 6352,5491 6353,5492 6354,5493 6355,5494 6357,5495 6358,5496 6360,5496 6361,5496 6363,5497 6366,5498 6370,5499 6375,5499 6381,5500 6387,5500 6387,5519 6361,5519 6321,5519 6281,5519 6272,5519 6265,5520 6259,5520 6254,5520 6254,5500 6260,5500 6266,5499 6271,5499 6275,5498 6277,5497 6279,5496 6281,5496 6282,5496 6284,5495 6285,5494 6286,5493 6287,5492 6288,5491 6289,5490 6289,5488 6290,5487 6291,5484 6292,5480 6293,5476 6294,5472 6294,5467 6294,5463 6293,5338 6293,5332 6292,5326 6291,5322 6290,5317 6289,5314 6288,5312 6287,5311 6286,5309 6284,5307 6283,5305 6282,5303 6280,5302 6278,5301 6276,5300 6274,5299 6272,5298 6270,5297 6268,5296 6263,5294 6258,5293 6252,5292 6246,5291 6240,5291 6238,5291 6236,5291 6234,5292 6232,5292 6227,5294 6222,5295 6220,5296 6217,5297 6212,5299 6207,5301 6202,5303 6182,5314 6177,5317 6173,5320 6171,5322 6169,5322 6168,5324 6166,5325 6167,5464 6167,5468 6167,5473 6168,5477 6169,5481 6170,5485 6170,5486 6171,5488 6171,5489 6172,5491 6173,5492 6174,5493 6175,5494 6176,5495 6178,5496 6179,5496 6181,5497 6183,5497 6184,5498 6187,5499 6192,5500 6198,5500 6204,5501 6210,5501 6210,5520 6205,5520 6199,5520 6192,5519 6183,5519 6142,5519 6103,5519 6094,5519 6087,5520 6081,5520 6076,5520 6076,5501 6082,5501 6088,5500 6093,5500 6097,5499 6099,5498 6101,5497 6103,5497 6104,5496 6106,5496 6107,5495 6108,5494 6109,5493 6110,5492 6111,5491 6112,5489 6112,5488 6114,5485 6115,5481 6116,5477 6116,5473 6117,5468 6117,5464 6116,5340 6116,5333 6116,5328 6115,5322 6114,5318 6112,5314 6111,5311 6111,5310 6110,5308 6110,5307 6109,5306 6108,5305 6107,5304 6106,5303 6105,5303 6104,5302 6103,5301 6101,5301 6099,5301 6096,5300 6091,5300 6086,5299 6081,5299 6081,5283 6090,5281 6099,5280 6108,5277 6116,5274 6120,5272 6124,5270 6128,5269 6131,5267 6135,5265 6138,5263 6142,5260 6145,5258 6168,5258 Z M 6524,5447 L 6524,5455 6526,5463 6526,5470 6527,5475 6527,5478 6528,5481 6529,5483 6530,5486 6531,5487 6532,5489 6534,5490 6535,5492 6536,5493 6537,5493 6538,5495 6540,5496 6542,5496 6545,5497 6547,5498 6549,5498 6552,5499 6555,5500 6558,5500 6565,5501 6572,5501 6581,5501 6581,5520 6573,5520 6564,5520 6554,5519 6544,5519 6499,5519 6453,5519 6442,5519 6433,5520 6424,5520 6415,5520 6415,5501 6423,5501 6431,5501 6437,5500 6440,5500 6443,5499 6446,5498 6448,5498 6451,5497 6453,5496 6455,5496 6457,5495 6459,5493 6461,5492 6462,5490 6463,5489 6464,5487 6466,5486 6467,5483 6468,5481 6468,5478 6469,5475 6470,5473 6470,5470 6471,5463 6471,5455 6471,5446 6469,5188 6469,5181 6468,5174 6468,5168 6467,5163 6467,5160 6466,5158 6465,5157 6465,5155 6464,5153 6463,5151 6460,5150 6459,5148 6457,5147 6456,5147 6454,5146 6452,5145 6449,5144 6447,5143 6445,5142 6442,5142 6439,5142 6436,5141 6430,5141 6414,5141 6414,5122 6428,5122 6436,5122 6446,5122 6466,5123 6477,5122 6488,5122 6530,5122 6539,5122 6548,5122 6555,5121 6562,5121 6570,5121 6578,5122 6586,5122 6594,5123 6601,5125 6609,5126 6616,5127 6623,5129 6630,5131 6637,5134 6644,5137 6650,5139 6656,5142 6662,5146 6667,5148 6672,5152 6677,5157 6681,5160 6686,5165 6690,5169 6693,5174 6697,5178 6700,5183 6703,5188 6706,5194 6709,5199 6711,5205 6712,5211 6713,5217 6714,5223 6715,5229 6715,5236 6715,5242 6714,5249 6713,5255 6712,5260 6711,5267 6709,5272 6706,5278 6704,5283 6701,5289 6698,5293 6695,5298 6692,5302 6688,5307 6684,5311 6680,5315 6676,5319 6672,5322 6667,5326 6662,5330 6658,5333 6652,5336 6647,5339 6642,5341 6636,5343 6630,5345 6624,5347 6618,5349 6612,5350 6606,5352 6600,5352 6593,5352 6587,5352 6581,5352 6573,5353 6565,5353 6557,5353 6524,5353 6524,5447 Z M 6523,5326 L 6537,5327 6546,5328 6553,5328 6578,5328 6586,5327 6595,5326 6598,5325 6602,5323 6606,5322 6610,5321 6613,5320 6617,5318 6620,5315 6623,5313 6626,5311 6629,5309 6635,5303 6638,5301 6640,5297 6643,5294 6645,5291 6649,5284 6652,5276 6655,5268 6656,5259 6658,5250 6658,5240 6658,5234 6656,5228 6656,5222 6655,5218 6653,5212 6652,5207 6650,5202 6648,5198 6646,5193 6643,5189 6640,5185 6638,5181 6635,5178 6632,5174 6628,5170 6625,5168 6621,5165 6617,5162 6613,5159 6609,5157 6604,5155 6599,5153 6595,5151 6590,5149 6585,5147 6581,5147 6576,5146 6571,5145 6566,5145 6562,5144 6557,5144 6552,5144 6548,5144 6544,5144 6536,5145 6528,5146 6525,5146 6522,5146 6523,5326 Z M 6801,5365 L 6801,5365 6801,5366 6801,5366 6800,5367 6800,5368 6800,5369 6800,5373 6800,5377 6800,5389 6800,5395 6801,5402 6802,5412 6803,5421 6805,5429 6808,5437 6811,5445 6815,5453 6821,5460 6826,5466 6829,5469 6832,5473 6835,5475 6838,5477 6842,5480 6845,5482 6849,5484 6852,5486 6856,5487 6860,5488 6864,5489 6868,5490 6872,5491 6877,5492 6886,5492 6892,5492 6898,5491 6904,5490 6910,5489 6916,5487 6922,5486 6927,5484 6932,5481 6937,5478 6942,5475 6946,5472 6951,5469 6955,5465 6960,5462 6968,5454 6987,5464 6982,5471 6977,5477 6972,5484 6967,5490 6961,5496 6955,5501 6948,5506 6941,5510 6934,5515 6926,5518 6918,5521 6910,5524 6902,5526 6893,5527 6884,5528 6874,5528 6868,5528 6861,5527 6855,5527 6849,5526 6843,5525 6837,5523 6832,5520 6826,5518 6820,5516 6815,5513 6810,5510 6805,5506 6800,5504 6796,5500 6791,5496 6787,5492 6782,5487 6778,5483 6775,5478 6771,5473 6768,5467 6765,5462 6762,5456 6760,5451 6758,5445 6756,5439 6755,5433 6753,5427 6752,5421 6752,5414 6751,5407 6751,5401 6750,5393 6751,5384 6751,5376 6753,5369 6754,5362 6756,5354 6758,5347 6760,5341 6765,5328 6768,5322 6771,5316 6774,5310 6778,5305 6782,5300 6786,5295 6790,5291 6795,5286 6799,5282 6804,5279 6809,5275 6814,5272 6819,5270 6825,5267 6831,5265 6837,5262 6843,5260 6849,5260 6855,5259 6862,5258 6868,5257 6875,5257 6879,5257 6884,5257 6888,5258 6893,5258 6897,5259 6902,5260 6906,5261 6911,5262 6916,5264 6921,5265 6926,5268 6930,5270 6934,5271 6938,5274 6942,5277 6946,5280 6949,5282 6953,5286 6956,5289 6959,5292 6961,5296 6964,5300 6967,5303 6969,5308 6971,5312 6973,5317 6975,5322 6976,5327 6978,5332 6979,5338 6980,5343 6980,5349 6980,5358 6980,5358 6980,5359 6980,5359 6980,5360 6980,5360 6980,5360 6980,5361 6979,5361 6979,5361 6979,5362 6979,5362 6978,5363 6978,5363 6978,5363 6978,5363 6977,5363 6977,5363 6977,5363 6977,5363 6976,5363 6975,5363 6975,5364 6973,5364 6971,5364 6969,5365 6968,5365 6967,5365 6965,5365 6964,5365 6801,5365 Z M 6915,5342 L 6917,5342 6918,5342 6920,5342 6921,5341 6922,5341 6923,5341 6924,5340 6925,5340 6925,5340 6925,5340 6926,5339 6926,5339 6926,5339 6927,5338 6927,5338 6927,5337 6927,5337 6928,5335 6928,5334 6928,5332 6928,5331 6928,5329 6928,5326 6927,5322 6926,5318 6924,5314 6922,5310 6920,5305 6917,5301 6913,5297 6911,5295 6909,5293 6907,5291 6905,5290 6903,5288 6900,5287 6898,5285 6896,5284 6892,5283 6889,5282 6887,5282 6884,5281 6878,5281 6872,5281 6865,5281 6858,5281 6852,5283 6849,5284 6846,5285 6843,5286 6840,5287 6837,5289 6835,5291 6832,5292 6830,5294 6827,5296 6825,5298 6821,5302 6817,5307 6814,5311 6811,5317 6808,5322 6806,5329 6804,5335 6803,5342 6915,5342 Z M 7105,5258 L 7104,5264 7103,5270 7102,5282 7102,5287 7102,5291 7102,5300 7109,5296 7115,5291 7127,5283 7133,5280 7140,5276 7146,5272 7152,5270 7158,5267 7165,5264 7171,5262 7178,5260 7185,5259 7188,5259 7192,5258 7195,5258 7199,5257 7202,5257 7206,5257 7216,5257 7226,5259 7230,5260 7234,5260 7238,5261 7241,5262 7245,5264 7248,5266 7251,5268 7254,5270 7256,5272 7259,5275 7261,5278 7263,5281 7267,5287 7270,5293 7273,5300 7275,5307 7277,5314 7278,5322 7280,5331 7280,5339 7281,5463 7281,5467 7282,5472 7282,5476 7283,5480 7284,5484 7286,5487 7286,5488 7287,5490 7288,5491 7289,5492 7290,5493 7291,5494 7293,5495 7294,5496 7296,5496 7297,5496 7299,5497 7302,5498 7306,5499 7311,5499 7317,5500 7323,5500 7323,5519 7297,5519 7257,5519 7218,5519 7209,5519 7202,5520 7196,5520 7191,5520 7190,5500 7196,5500 7202,5499 7207,5499 7212,5498 7214,5497 7216,5496 7218,5496 7219,5496 7221,5495 7222,5494 7223,5493 7224,5492 7225,5491 7226,5490 7226,5488 7227,5487 7227,5484 7228,5480 7229,5476 7230,5472 7230,5467 7230,5463 7229,5338 7229,5332 7228,5326 7227,5322 7226,5317 7225,5314 7224,5312 7223,5311 7222,5309 7220,5307 7219,5305 7218,5303 7216,5302 7214,5301 7213,5300 7211,5299 7209,5298 7207,5297 7205,5296 7200,5294 7195,5293 7189,5292 7183,5291 7176,5291 7174,5291 7172,5291 7170,5292 7168,5292 7163,5294 7158,5295 7156,5296 7153,5297 7148,5299 7143,5301 7138,5303 7118,5314 7113,5317 7109,5320 7107,5322 7105,5322 7104,5324 7102,5325 7103,5464 7104,5468 7104,5473 7105,5477 7106,5481 7107,5485 7107,5486 7108,5488 7108,5489 7109,5491 7110,5492 7111,5493 7112,5494 7113,5495 7115,5496 7116,5496 7118,5497 7120,5497 7121,5498 7124,5499 7128,5500 7134,5500 7140,5501 7146,5501 7146,5520 7141,5520 7135,5520 7128,5519 7119,5519 7079,5519 7040,5519 7030,5519 7023,5520 7017,5520 7012,5520 7012,5501 7018,5501 7024,5500 7029,5500 7033,5499 7035,5498 7037,5497 7039,5497 7040,5496 7042,5496 7043,5495 7044,5494 7045,5493 7046,5492 7047,5491 7048,5489 7048,5488 7050,5485 7051,5481 7052,5477 7052,5473 7053,5468 7053,5464 7052,5340 7052,5333 7052,5328 7051,5322 7050,5318 7049,5314 7048,5311 7048,5310 7047,5308 7047,5307 7046,5306 7045,5305 7044,5304 7043,5303 7042,5303 7041,5302 7040,5301 7038,5301 7036,5301 7033,5300 7028,5300 7023,5299 7017,5299 7017,5283 7026,5281 7035,5280 7044,5277 7052,5274 7057,5272 7061,5270 7065,5269 7068,5267 7072,5265 7075,5263 7079,5260 7082,5258 7105,5258 Z M 7410,5512 L 7403,5509 7396,5506 7391,5502 7386,5498 7381,5495 7379,5493 7377,5491 7376,5489 7374,5487 7372,5485 7371,5483 7369,5478 7368,5475 7367,5470 7366,5465 7365,5461 7366,5456 7366,5452 7367,5447 7373,5444 7379,5441 7391,5434 7397,5430 7402,5427 7404,5425 7406,5424 7408,5423 7410,5421 7404,5418 7399,5415 7394,5412 7389,5408 7385,5404 7381,5401 7377,5397 7373,5393 7371,5391 7370,5388 7367,5383 7363,5378 7361,5373 7360,5367 7359,5360 7358,5353 7358,5346 7358,5337 7360,5329 7361,5324 7362,5320 7363,5316 7365,5312 7367,5308 7369,5304 7372,5301 7374,5297 7380,5290 7387,5283 7391,5281 7395,5277 7399,5274 7403,5271 7408,5270 7413,5267 7418,5265 7424,5263 7435,5260 7447,5259 7460,5257 7474,5257 7478,5257 7481,5257 7489,5258 7496,5259 7503,5260 7517,5261 7523,5263 7529,5264 7535,5266 7541,5268 7555,5271 7559,5272 7562,5273 7566,5273 7571,5273 7579,5274 7588,5274 7597,5274 7605,5274 7608,5274 7609,5274 7609,5274 7610,5274 7610,5274 7611,5274 7611,5273 7612,5273 7612,5273 7613,5273 7614,5273 7615,5273 7615,5273 7616,5273 7617,5273 7617,5273 7620,5272 7622,5272 7624,5271 7625,5303 7568,5301 7569,5302 7569,5302 7570,5303 7570,5304 7571,5306 7572,5308 7573,5310 7574,5312 7576,5318 7577,5321 7578,5324 7579,5327 7579,5330 7580,5336 7580,5342 7580,5352 7578,5363 7577,5367 7576,5372 7574,5376 7572,5381 7570,5384 7568,5389 7565,5393 7563,5396 7560,5400 7556,5403 7553,5406 7549,5409 7541,5414 7532,5419 7522,5424 7512,5426 7502,5429 7490,5431 7478,5433 7466,5433 7459,5433 7452,5433 7444,5433 7443,5433 7442,5433 7440,5433 7439,5432 7438,5432 7438,5432 7437,5431 7436,5431 7433,5433 7431,5434 7428,5435 7426,5436 7424,5438 7423,5439 7421,5441 7420,5443 7419,5445 7418,5446 7417,5448 7417,5450 7416,5451 7417,5453 7417,5455 7417,5456 7417,5460 7417,5462 7418,5464 7418,5465 7418,5466 7419,5467 7420,5469 7420,5470 7421,5471 7422,5472 7423,5473 7424,5474 7425,5475 7426,5475 7427,5476 7428,5477 7430,5477 7432,5479 7436,5480 7439,5481 7443,5481 7447,5482 7452,5482 7457,5482 7462,5482 7468,5483 7473,5483 7478,5483 7499,5483 7518,5483 7538,5483 7548,5483 7557,5484 7565,5485 7574,5486 7581,5489 7589,5491 7596,5495 7602,5498 7605,5500 7608,5503 7610,5505 7613,5507 7615,5510 7617,5513 7619,5516 7621,5518 7623,5522 7624,5525 7626,5528 7626,5532 7627,5536 7628,5539 7628,5547 7628,5553 7627,5557 7626,5562 7625,5568 7623,5572 7621,5577 7618,5581 7615,5586 7612,5590 7608,5595 7604,5598 7600,5603 7596,5607 7591,5610 7586,5614 7581,5618 7575,5621 7569,5624 7563,5628 7557,5630 7550,5633 7543,5636 7529,5640 7522,5642 7514,5644 7506,5646 7498,5647 7490,5648 7482,5649 7465,5649 7450,5649 7443,5648 7437,5647 7430,5646 7424,5645 7418,5644 7413,5642 7408,5640 7402,5639 7397,5637 7393,5635 7388,5632 7384,5630 7380,5628 7376,5625 7372,5622 7369,5620 7366,5618 7363,5615 7360,5612 7357,5609 7355,5606 7353,5603 7351,5600 7350,5597 7349,5594 7348,5590 7347,5588 7346,5585 7346,5581 7346,5578 7346,5572 7347,5567 7349,5561 7349,5558 7351,5556 7352,5553 7353,5551 7355,5548 7356,5547 7358,5544 7360,5542 7364,5537 7369,5534 7374,5529 7379,5526 7384,5523 7390,5519 7396,5516 7403,5514 7410,5512 Z M 7413,5341 L 7413,5348 7414,5354 7415,5362 7417,5368 7419,5373 7422,5380 7425,5385 7428,5391 7430,5393 7432,5395 7434,5398 7436,5400 7438,5402 7440,5404 7443,5405 7445,5406 7448,5408 7451,5409 7454,5410 7457,5411 7460,5411 7463,5412 7467,5412 7471,5412 7479,5412 7482,5411 7486,5411 7489,5410 7492,5409 7495,5408 7498,5407 7501,5405 7503,5404 7506,5403 7508,5401 7510,5399 7512,5397 7514,5395 7516,5393 7519,5388 7522,5383 7525,5377 7527,5372 7528,5366 7528,5361 7529,5354 7529,5348 7529,5345 7529,5342 7528,5339 7528,5336 7527,5330 7525,5323 7524,5321 7523,5317 7522,5314 7520,5311 7519,5309 7517,5306 7514,5301 7512,5298 7510,5296 7508,5293 7505,5291 7503,5289 7500,5287 7498,5285 7495,5283 7492,5281 7488,5281 7485,5280 7482,5279 7478,5278 7475,5277 7471,5277 7467,5277 7463,5277 7460,5277 7456,5278 7453,5279 7450,5280 7447,5281 7445,5281 7442,5283 7440,5285 7437,5287 7435,5288 7433,5290 7429,5294 7425,5298 7424,5301 7422,5302 7421,5305 7420,5308 7418,5313 7416,5319 7414,5324 7414,5327 7413,5330 7413,5332 7412,5335 7412,5338 7413,5341 Z M 7392,5571 L 7392,5575 7392,5578 7393,5580 7394,5583 7395,5587 7396,5589 7398,5592 7399,5594 7401,5597 7402,5599 7404,5601 7407,5604 7409,5606 7411,5608 7414,5609 7417,5611 7423,5615 7429,5618 7436,5619 7443,5621 7450,5623 7458,5624 7466,5625 7474,5625 7479,5625 7484,5625 7496,5624 7506,5622 7516,5620 7526,5619 7530,5617 7535,5616 7539,5614 7543,5612 7546,5610 7550,5609 7554,5607 7557,5604 7560,5602 7563,5599 7566,5598 7569,5595 7571,5592 7573,5589 7575,5587 7577,5584 7578,5581 7580,5578 7581,5575 7581,5571 7582,5568 7582,5564 7582,5561 7582,5557 7581,5555 7580,5552 7578,5550 7577,5547 7576,5545 7574,5543 7573,5541 7571,5538 7569,5537 7566,5535 7564,5534 7561,5532 7558,5530 7555,5529 7548,5527 7542,5525 7534,5524 7527,5522 7519,5521 7511,5521 7503,5520 7494,5520 7482,5520 7470,5521 7459,5522 7449,5524 7440,5526 7432,5527 7424,5530 7421,5532 7418,5534 7412,5537 7407,5542 7404,5544 7402,5546 7400,5548 7399,5550 7397,5553 7396,5555 7395,5557 7394,5560 7393,5563 7392,5566 7392,5568 7392,5571 Z M 7869,5486 L 7856,5496 7843,5504 7830,5511 7824,5515 7818,5517 7812,5520 7806,5522 7799,5524 7792,5526 7785,5527 7778,5527 7770,5528 7762,5528 7759,5528 7756,5528 7752,5528 7749,5527 7746,5527 7743,5527 7740,5526 7737,5525 7734,5524 7731,5523 7728,5521 7725,5520 7722,5518 7720,5516 7717,5515 7715,5513 7712,5510 7710,5508 7708,5506 7706,5503 7704,5500 7702,5497 7701,5494 7699,5491 7698,5487 7696,5484 7695,5480 7694,5476 7694,5473 7693,5468 7692,5464 7692,5459 7691,5314 7691,5310 7691,5306 7690,5303 7689,5300 7689,5299 7688,5298 7688,5296 7687,5295 7686,5294 7686,5294 7685,5293 7684,5292 7683,5291 7682,5291 7681,5291 7680,5291 7677,5290 7673,5289 7669,5288 7665,5287 7660,5286 7654,5286 7654,5270 7663,5270 7672,5269 7695,5268 7743,5264 7742,5270 7742,5276 7741,5291 7741,5298 7741,5304 7741,5313 7743,5430 7743,5440 7744,5448 7744,5456 7745,5464 7747,5469 7748,5472 7748,5475 7749,5476 7751,5478 7752,5480 7753,5482 7754,5484 7756,5485 7757,5486 7759,5487 7761,5488 7762,5489 7764,5490 7766,5491 7768,5491 7770,5492 7772,5493 7775,5493 7780,5494 7785,5494 7790,5494 7794,5493 7799,5493 7806,5492 7811,5490 7816,5489 7822,5486 7828,5485 7834,5482 7840,5479 7845,5476 7851,5474 7856,5470 7861,5466 7865,5463 7870,5459 7868,5313 7868,5310 7868,5306 7867,5302 7866,5301 7866,5300 7865,5299 7865,5298 7864,5296 7863,5295 7862,5294 7861,5294 7860,5293 7859,5292 7856,5291 7853,5290 7850,5289 7846,5288 7842,5287 7837,5286 7832,5285 7826,5285 7826,5269 7869,5268 7920,5264 7919,5291 7919,5304 7919,5310 7919,5313 7920,5477 7920,5481 7920,5484 7921,5485 7921,5486 7921,5487 7922,5488 7922,5489 7923,5490 7924,5491 7924,5492 7925,5492 7926,5493 7927,5494 7928,5494 7930,5495 7933,5495 7936,5496 7940,5496 7946,5496 7950,5496 7956,5496 7962,5495 7962,5511 7946,5515 7926,5519 7923,5519 7921,5520 7916,5522 7904,5525 7894,5527 7889,5528 7885,5529 7884,5529 7884,5530 7883,5530 7882,5530 7881,5530 7881,5530 7880,5530 7880,5530 7879,5530 7878,5530 7877,5529 7875,5529 7874,5528 7873,5527 7872,5527 7871,5526 7870,5525 7870,5524 7870,5523 7870,5523 7869,5522 7869,5522 7869,5521 7869,5521 7869,5520 7869,5486 Z M 8082,5468 L 8082,5474 8082,5478 8083,5482 8084,5486 8085,5489 8085,5490 8086,5492 8087,5493 8087,5494 8088,5495 8089,5496 8091,5496 8092,5496 8093,5497 8095,5497 8096,5498 8098,5498 8102,5499 8107,5499 8112,5500 8124,5500 8124,5519 8108,5519 8092,5519 8090,5519 8088,5519 8084,5519 8080,5518 8078,5518 8076,5518 8059,5518 8024,5519 8016,5519 8007,5519 7992,5519 7992,5500 8004,5500 8009,5499 8014,5499 8017,5498 8019,5498 8020,5497 8022,5497 8023,5496 8024,5496 8025,5496 8026,5495 8027,5494 8027,5493 8028,5492 8029,5490 8029,5489 8030,5486 8031,5482 8032,5478 8032,5474 8032,5468 8031,5340 8031,5328 8030,5323 8029,5319 8028,5315 8027,5311 8027,5311 8026,5309 8026,5308 8025,5307 8024,5306 8023,5305 8022,5304 8021,5304 8020,5303 8019,5302 8017,5302 8015,5301 8011,5301 8007,5301 8002,5300 7996,5300 7996,5283 8005,5281 8014,5280 8019,5279 8023,5278 8027,5277 8031,5275 8035,5273 8039,5271 8043,5270 8047,5268 8050,5265 8054,5263 8058,5260 8061,5258 8083,5258 8082,5265 8082,5272 8082,5290 8081,5320 8082,5468 Z M 8052,5117 L 8056,5117 8059,5117 8061,5117 8062,5117 8064,5118 8065,5118 8067,5119 8068,5120 8071,5121 8074,5124 8077,5126 8078,5127 8080,5128 8081,5129 8082,5131 8083,5132 8084,5134 8085,5135 8085,5137 8086,5138 8086,5139 8087,5141 8087,5143 8088,5146 8088,5149 8088,5153 8088,5154 8087,5156 8087,5158 8086,5158 8086,5160 8085,5162 8085,5163 8084,5165 8083,5166 8082,5168 8080,5169 8077,5172 8074,5174 8071,5177 8068,5178 8067,5178 8065,5179 8064,5179 8062,5180 8061,5180 8059,5180 8056,5181 8052,5181 8048,5181 8045,5180 8042,5180 8040,5179 8038,5179 8037,5178 8035,5178 8034,5177 8032,5177 8031,5176 8030,5174 8027,5172 8025,5169 8023,5168 8022,5168 8022,5166 8021,5165 8020,5163 8019,5162 8019,5160 8018,5158 8018,5156 8017,5153 8017,5149 8017,5146 8018,5143 8018,5139 8019,5137 8020,5135 8021,5134 8022,5132 8022,5131 8023,5129 8025,5128 8026,5127 8027,5126 8030,5124 8031,5122 8032,5121 8034,5121 8035,5120 8037,5119 8038,5118 8040,5118 8042,5117 8045,5117 8048,5117 8052,5117 Z M 8243,5258 L 8242,5264 8241,5270 8241,5282 8241,5287 8241,5291 8241,5300 8248,5296 8254,5291 8266,5283 8272,5280 8279,5276 8285,5272 8291,5270 8297,5267 8304,5264 8310,5262 8317,5260 8324,5259 8327,5259 8331,5258 8334,5258 8338,5257 8341,5257 8345,5257 8355,5257 8364,5259 8368,5260 8372,5260 8376,5261 8379,5262 8383,5264 8386,5266 8389,5268 8392,5270 8395,5272 8398,5275 8400,5278 8402,5281 8406,5287 8409,5293 8412,5300 8414,5307 8416,5314 8417,5322 8418,5331 8418,5339 8419,5463 8419,5467 8421,5472 8421,5476 8422,5480 8423,5484 8425,5487 8425,5488 8426,5490 8427,5491 8428,5492 8429,5493 8430,5494 8432,5495 8433,5496 8435,5496 8436,5496 8438,5497 8441,5498 8445,5499 8450,5499 8456,5500 8462,5500 8462,5519 8436,5519 8396,5519 8357,5519 8347,5519 8340,5520 8334,5520 8329,5520 8329,5500 8335,5500 8341,5499 8346,5499 8350,5498 8352,5497 8354,5496 8356,5496 8357,5496 8359,5495 8360,5494 8361,5493 8362,5492 8363,5491 8364,5490 8364,5488 8365,5487 8366,5484 8367,5480 8368,5476 8369,5472 8369,5467 8369,5463 8368,5338 8368,5332 8367,5326 8366,5322 8365,5317 8364,5314 8363,5312 8362,5311 8361,5309 8359,5307 8358,5305 8357,5303 8355,5302 8353,5301 8351,5300 8349,5299 8347,5298 8345,5297 8343,5296 8338,5294 8333,5293 8327,5292 8321,5291 8315,5291 8313,5291 8311,5291 8309,5292 8307,5292 8302,5294 8297,5295 8295,5296 8292,5297 8287,5299 8282,5301 8277,5303 8257,5314 8252,5317 8248,5320 8246,5322 8244,5322 8243,5324 8241,5325 8242,5464 8242,5468 8242,5473 8243,5477 8244,5481 8245,5485 8245,5486 8247,5488 8247,5489 8248,5491 8249,5492 8250,5493 8251,5494 8252,5495 8254,5496 8255,5496 8257,5497 8259,5497 8260,5498 8263,5499 8267,5500 8273,5500 8279,5501 8285,5501 8285,5520 8280,5520 8274,5520 8267,5519 8258,5519 8218,5519 8178,5519 8169,5519 8162,5520 8156,5520 8151,5520 8151,5501 8157,5501 8163,5500 8168,5500 8172,5499 8174,5498 8176,5497 8178,5497 8179,5496 8181,5496 8182,5495 8183,5494 8184,5493 8185,5492 8186,5491 8187,5489 8187,5488 8189,5485 8190,5481 8191,5477 8191,5473 8192,5468 8192,5464 8191,5340 8191,5333 8191,5328 8190,5322 8189,5318 8188,5314 8186,5311 8186,5310 8185,5308 8185,5307 8184,5306 8183,5305 8182,5304 8181,5303 8180,5303 8179,5302 8178,5301 8176,5301 8174,5301 8171,5300 8166,5300 8161,5299 8156,5299 8156,5283 8165,5281 8174,5280 8183,5277 8191,5274 8195,5272 8199,5270 8203,5269 8206,5267 8210,5265 8213,5263 8217,5260 8220,5258 8243,5258 Z"/>
       </g>
      </g>
      <g class="com.sun.star.drawing.CustomShape">
       <g id="id4">
        <rect class="BoundingBox" stroke="none" fill="none" x="5000" y="5584" width="5662" height="1334"/>
        <path fill="rgb(0,0,0)" stroke="none" d="M 5401,5835 L 5209,5835 5211,6160 5387,6160 5412,6159 5436,6158 5459,6155 5481,6150 5500,6145 5519,6138 5536,6131 5552,6122 5559,6117 5566,6112 5572,6106 5578,6100 5583,6092 5588,6086 5592,6078 5596,6069 5600,6061 5603,6052 5605,6042 5607,6032 5610,6011 5611,5986 5610,5970 5608,5955 5606,5947 5604,5940 5602,5933 5599,5926 5596,5919 5592,5912 5587,5907 5583,5900 5578,5894 5573,5888 5567,5884 5561,5878 5555,5873 5548,5868 5539,5863 5532,5860 5523,5856 5515,5852 5496,5846 5474,5841 5452,5838 5427,5836 5401,5835 Z M 5401,6313 L 5212,6313 5213,6733 5428,6733 5456,6732 5482,6729 5507,6725 5530,6718 5541,6715 5551,6710 5562,6705 5572,6700 5581,6694 5590,6688 5599,6681 5607,6674 5615,6666 5622,6659 5630,6651 5636,6642 5641,6634 5647,6625 5651,6616 5655,6607 5659,6598 5662,6588 5667,6568 5670,6547 5671,6525 5670,6503 5666,6482 5664,6471 5661,6462 5658,6452 5654,6442 5650,6433 5645,6424 5639,6414 5634,6406 5626,6398 5619,6389 5604,6374 5596,6366 5586,6360 5576,6354 5566,6347 5555,6342 5544,6338 5532,6333 5520,6329 5494,6322 5465,6317 5434,6314 5401,6313 Z M 5623,6225 L 5636,6228 5649,6231 5662,6235 5676,6238 5688,6243 5701,6248 5713,6254 5726,6261 5738,6267 5749,6274 5760,6282 5771,6289 5782,6298 5792,6307 5801,6316 5810,6326 5820,6336 5828,6346 5836,6357 5843,6368 5850,6380 5856,6391 5863,6404 5869,6416 5874,6429 5878,6442 5882,6456 5885,6469 5887,6484 5890,6497 5891,6512 5891,6526 5891,6543 5889,6561 5887,6579 5884,6595 5880,6613 5876,6630 5870,6647 5864,6664 5857,6680 5849,6696 5840,6712 5829,6726 5818,6741 5806,6755 5794,6768 5781,6782 5767,6794 5751,6807 5735,6818 5719,6829 5701,6840 5682,6849 5662,6858 5642,6867 5620,6874 5598,6880 5575,6886 5551,6891 5527,6893 5500,6896 5475,6897 5447,6898 5005,6898 5000,5670 5434,5670 5458,5670 5483,5672 5506,5674 5528,5677 5550,5680 5570,5684 5590,5689 5609,5695 5627,5702 5645,5709 5661,5715 5676,5723 5692,5732 5706,5740 5719,5750 5732,5760 5745,5770 5756,5781 5766,5792 5775,5803 5785,5815 5793,5828 5800,5840 5806,5853 5811,5866 5816,5879 5821,5892 5824,5906 5827,5919 5829,5933 5830,5946 5830,5960 5829,5983 5827,6006 5823,6027 5817,6048 5810,6067 5801,6087 5790,6105 5778,6122 5764,6138 5748,6154 5731,6168 5713,6182 5693,6193 5670,6205 5647,6214 5623,6223 5623,6225 Z M 6414,6912 L 6385,6911 6359,6910 6332,6906 6307,6902 6282,6897 6259,6891 6237,6882 6215,6873 6195,6864 6175,6853 6156,6842 6139,6829 6121,6816 6105,6802 6090,6787 6076,6771 6063,6755 6051,6738 6039,6720 6029,6702 6019,6684 6010,6664 6002,6644 5995,6623 5989,6602 5984,6581 5978,6559 5975,6537 5972,6515 5970,6491 5968,6468 5968,6445 5968,6421 5970,6397 5971,6373 5974,6350 5978,6327 5983,6305 5988,6283 5995,6262 6003,6240 6011,6220 6021,6201 6031,6183 6042,6164 6053,6146 6066,6130 6079,6113 6093,6098 6109,6084 6125,6070 6141,6057 6159,6045 6178,6034 6197,6024 6217,6014 6239,6006 6260,5999 6283,5992 6307,5987 6331,5984 6357,5981 6383,5980 6409,5979 6436,5980 6462,5981 6488,5984 6511,5987 6535,5992 6558,5999 6580,6006 6601,6014 6622,6024 6641,6034 6659,6045 6678,6057 6694,6070 6710,6084 6726,6098 6740,6113 6753,6130 6767,6146 6778,6164 6789,6183 6800,6201 6809,6220 6817,6240 6825,6262 6832,6283 6838,6305 6843,6327 6847,6350 6850,6373 6852,6397 6855,6421 6855,6445 6855,6468 6853,6491 6851,6515 6849,6537 6845,6559 6840,6581 6835,6602 6829,6623 6822,6644 6814,6664 6805,6684 6796,6702 6785,6720 6774,6738 6761,6755 6748,6771 6734,6787 6720,6802 6704,6816 6686,6829 6669,6842 6650,6853 6631,6864 6610,6873 6589,6882 6567,6891 6544,6897 6520,6902 6494,6906 6469,6910 6441,6911 6414,6912 Z M 6413,6755 L 6441,6754 6454,6752 6466,6750 6478,6747 6490,6744 6502,6741 6513,6737 6523,6731 6533,6726 6542,6719 6551,6714 6561,6706 6569,6698 6577,6690 6584,6681 6591,6671 6597,6661 6603,6650 6609,6639 6618,6614 6626,6585 6632,6554 6637,6520 6639,6485 6640,6445 6639,6406 6636,6368 6631,6335 6625,6304 6618,6275 6607,6250 6602,6238 6596,6227 6590,6217 6583,6208 6575,6199 6567,6190 6559,6183 6551,6176 6542,6169 6532,6163 6521,6158 6511,6153 6500,6149 6489,6145 6476,6141 6464,6139 6451,6137 6438,6136 6410,6135 6383,6136 6370,6137 6356,6139 6344,6141 6332,6145 6321,6149 6310,6153 6299,6158 6289,6163 6280,6169 6271,6176 6262,6183 6254,6190 6246,6199 6238,6208 6231,6217 6225,6227 6219,6238 6213,6250 6204,6275 6196,6304 6190,6335 6185,6368 6183,6406 6183,6445 6184,6485 6187,6520 6191,6554 6197,6585 6206,6614 6216,6639 6222,6650 6228,6661 6235,6671 6242,6681 6249,6690 6257,6698 6265,6706 6274,6714 6284,6719 6293,6726 6303,6731 6314,6737 6324,6741 6336,6744 6348,6747 6360,6750 6372,6752 6386,6754 6413,6755 Z M 7383,6912 L 7355,6911 7328,6910 7302,6906 7276,6902 7252,6897 7228,6891 7206,6882 7185,6873 7164,6864 7145,6853 7125,6842 7108,6829 7091,6816 7074,6802 7060,6787 7046,6771 7032,6755 7020,6738 7009,6720 6998,6702 6988,6684 6980,6664 6972,6644 6964,6623 6958,6602 6953,6581 6948,6559 6945,6537 6942,6515 6939,6491 6937,6468 6937,6445 6937,6421 6939,6397 6941,6373 6944,6350 6948,6327 6953,6305 6958,6283 6965,6262 6973,6240 6981,6220 6990,6201 7000,6183 7011,6164 7022,6146 7035,6130 7049,6113 7063,6098 7078,6084 7094,6070 7110,6057 7129,6045 7147,6034 7166,6024 7187,6014 7208,6006 7229,5999 7253,5992 7276,5987 7300,5984 7326,5981 7352,5980 7379,5979 7405,5980 7432,5981 7457,5984 7481,5987 7504,5992 7528,5999 7549,6006 7570,6014 7591,6024 7610,6034 7629,6045 7647,6057 7663,6070 7680,6084 7695,6098 7709,6113 7723,6130 7736,6146 7747,6164 7759,6183 7769,6201 7778,6220 7786,6240 7795,6262 7802,6283 7807,6305 7812,6327 7816,6350 7820,6373 7822,6397 7824,6421 7824,6445 7824,6468 7822,6491 7820,6515 7818,6537 7814,6559 7809,6581 7804,6602 7798,6623 7791,6644 7783,6664 7774,6684 7765,6702 7754,6720 7743,6738 7731,6755 7718,6771 7704,6787 7689,6802 7673,6816 7656,6829 7639,6842 7619,6853 7600,6864 7580,6873 7558,6882 7536,6891 7514,6897 7489,6902 7464,6906 7438,6910 7411,6911 7383,6912 Z M 7383,6755 L 7410,6754 7423,6752 7436,6750 7448,6747 7460,6744 7471,6741 7482,6737 7492,6731 7503,6726 7512,6719 7521,6714 7530,6706 7538,6698 7546,6690 7553,6681 7560,6671 7566,6661 7573,6650 7579,6639 7588,6614 7596,6585 7602,6554 7607,6520 7608,6485 7609,6445 7608,6406 7606,6368 7601,6335 7594,6304 7587,6275 7577,6250 7572,6238 7565,6227 7559,6217 7552,6208 7545,6199 7537,6190 7529,6183 7520,6176 7511,6169 7501,6163 7491,6158 7481,6153 7469,6149 7458,6145 7446,6141 7434,6139 7420,6137 7407,6136 7380,6135 7352,6136 7339,6137 7326,6139 7313,6141 7301,6145 7290,6149 7279,6153 7269,6158 7259,6163 7249,6169 7240,6176 7231,6183 7223,6190 7215,6199 7208,6208 7201,6217 7195,6227 7189,6238 7183,6250 7174,6275 7166,6304 7160,6335 7155,6368 7153,6406 7152,6445 7153,6485 7156,6520 7161,6554 7167,6585 7175,6614 7185,6639 7192,6650 7198,6661 7204,6671 7211,6681 7218,6690 7227,6698 7235,6706 7244,6714 7253,6719 7262,6726 7272,6731 7284,6737 7294,6741 7305,6744 7317,6747 7330,6750 7342,6752 7355,6754 7383,6755 Z M 8340,6373 L 8340,6377 8789,6897 8525,6897 8215,6490 8213,6490 8175,6529 8177,6897 7968,6897 7961,5584 8170,5584 8174,6304 8176,6304 8482,5999 8743,5999 8340,6373 Z M 9061,5584 L 9068,6897 8859,6897 8852,5584 9061,5584 Z M 9396,6341 L 9828,6341 9828,6337 9826,6312 9824,6288 9820,6266 9814,6246 9807,6227 9802,6218 9797,6210 9792,6202 9787,6194 9781,6187 9775,6180 9768,6173 9761,6167 9753,6162 9746,6157 9738,6152 9730,6147 9722,6143 9712,6139 9703,6137 9693,6134 9674,6130 9652,6127 9630,6126 9609,6127 9588,6130 9569,6134 9550,6140 9531,6148 9513,6158 9496,6169 9479,6183 9464,6198 9450,6213 9437,6232 9426,6250 9417,6271 9408,6292 9402,6315 9396,6339 9396,6341 Z M 9977,6636 L 9978,6635 9979,6635 9979,6634 9980,6634 9981,6633 9982,6633 9983,6633 9984,6632 9985,6632 9986,6632 9987,6632 9988,6632 9989,6633 9990,6633 9991,6633 9992,6634 9993,6635 9994,6635 9995,6636 9996,6636 9996,6637 9997,6638 9998,6639 9998,6640 9999,6640 9999,6641 9999,6641 10000,6642 10000,6643 10000,6645 10000,6647 10001,6804 9988,6817 9974,6830 9957,6842 9940,6852 9921,6863 9901,6872 9878,6880 9855,6888 9830,6894 9805,6900 9780,6905 9753,6909 9726,6913 9698,6915 9670,6917 9640,6917 9616,6916 9591,6915 9567,6912 9543,6909 9521,6904 9498,6898 9476,6892 9455,6885 9434,6876 9414,6867 9394,6857 9376,6845 9358,6834 9340,6821 9324,6807 9308,6792 9294,6777 9280,6761 9267,6744 9255,6726 9243,6708 9233,6689 9223,6668 9214,6647 9206,6625 9200,6603 9193,6580 9188,6556 9185,6531 9182,6505 9181,6479 9179,6452 9180,6426 9181,6401 9184,6376 9187,6352 9192,6328 9198,6305 9204,6283 9212,6261 9221,6239 9230,6219 9240,6199 9252,6180 9265,6162 9277,6144 9291,6128 9305,6112 9320,6096 9336,6082 9353,6068 9370,6056 9388,6043 9407,6033 9427,6022 9447,6013 9468,6006 9490,5998 9512,5992 9535,5987 9558,5984 9582,5981 9607,5980 9631,5979 9680,5981 9726,5986 9747,5990 9769,5995 9789,6001 9809,6009 9828,6016 9845,6025 9863,6035 9879,6045 9895,6057 9911,6069 9925,6082 9938,6096 9952,6112 9963,6127 9974,6143 9984,6161 9994,6179 10003,6198 10017,6238 10030,6281 10038,6327 10043,6377 10045,6429 10045,6492 9384,6492 9384,6497 9388,6529 9393,6559 9400,6587 9410,6613 9416,6624 9422,6636 9428,6647 9435,6658 9442,6667 9450,6677 9459,6686 9468,6694 9477,6702 9487,6710 9497,6716 9508,6723 9519,6729 9530,6735 9554,6743 9579,6750 9606,6756 9633,6759 9663,6760 9685,6759 9707,6758 9730,6755 9751,6751 9773,6746 9793,6741 9813,6734 9834,6726 9853,6717 9872,6708 9891,6697 9909,6687 9927,6675 9944,6663 9960,6649 9977,6636 Z M 10637,6710 L 10639,6709 10640,6708 10641,6708 10642,6707 10643,6707 10644,6706 10645,6706 10645,6706 10646,6706 10647,6706 10648,6706 10649,6706 10650,6706 10651,6707 10652,6707 10653,6707 10654,6708 10655,6708 10655,6709 10656,6710 10657,6710 10657,6711 10658,6712 10658,6713 10659,6714 10659,6715 10659,6716 10660,6716 10660,6717 10660,6718 10660,6719 10661,6859 10651,6866 10641,6872 10630,6878 10619,6884 10607,6889 10595,6893 10583,6897 10570,6901 10543,6907 10516,6911 10502,6913 10488,6914 10474,6915 10460,6915 10429,6914 10401,6911 10374,6906 10351,6899 10340,6895 10328,6892 10318,6887 10309,6882 10300,6876 10292,6870 10283,6864 10276,6857 10269,6849 10263,6842 10257,6834 10252,6825 10246,6816 10241,6806 10233,6786 10227,6764 10223,6739 10219,6713 10218,6685 10216,6150 10066,6150 10065,5999 10215,5999 10214,5790 10418,5790 10419,5999 10652,5999 10652,6150 10420,6150 10423,6666 10423,6677 10424,6687 10426,6696 10427,6706 10430,6714 10432,6717 10433,6720 10435,6724 10437,6727 10440,6730 10442,6733 10444,6736 10447,6738 10449,6740 10452,6741 10455,6743 10459,6745 10462,6747 10465,6748 10469,6749 10473,6750 10481,6752 10491,6753 10501,6753 10511,6753 10521,6752 10531,6751 10541,6750 10551,6748 10560,6746 10568,6744 10576,6741 10584,6739 10592,6736 10599,6732 10608,6728 10615,6724 10623,6719 10630,6715 10637,6710 Z"/>
       </g>
      </g>
      <g class="Graphic">
       <title>HornPenguine_Whole_Body
       </title>
       <g id="id5">
        <rect class="BoundingBox" stroke="none" fill="none" x="9461" y="250" width="5200" height="7001"/>
        <defs>
         <clipPath id="clip_path_1" clipPathUnits="userSpaceOnUse">
          <path d="M 9461,250 L 14660,250 14660,7250 9461,7250 9461,250 Z"/>
         </clipPath>
        </defs>
        <g clip-path="url(#clip_path_1)">
         <g style="opacity: 0.811764705882353">
          <text class="TextShape" transform="rotate(-57.5 0 0)"><tspan class="TextParagraph" font-family="&apos;Noto Sans KR&apos;, sans-serif" font-size="206px" font-weight="400"><tspan class="TextPosition" x="12615" y="5244"><tspan fill="rgb(0,0,0)" stroke="none">`</tspan></tspan></tspan></text>
         </g>
         <path fill="rgb(0,0,0)" stroke="none" d="M 12753,255 C 12750,254 12747,256 12747,259 12774,667 12686,941 12553,1163 L 12490,1141 C 12490,1141 12490,1141 12490,1141 L 12424,1121 C 12424,1121 12424,1121 12424,1121 L 12357,1104 C 12357,1104 12356,1104 12356,1104 L 12289,1090 C 12289,1090 12289,1090 12289,1090 L 12220,1079 C 12220,1079 12220,1079 12220,1079 L 12151,1070 C 12151,1070 12150,1070 12150,1070 L 12081,1064 C 12081,1064 12081,1064 12081,1064 L 12010,1061 C 12010,1061 12010,1061 12010,1061 L 11940,1061 C 11940,1061 11940,1061 11940,1061 L 11870,1064 C 11870,1064 11870,1064 11870,1064 L 11800,1070 C 11800,1070 11800,1070 11800,1070 L 11731,1079 C 11731,1079 11731,1079 11731,1079 L 11662,1090 C 11662,1090 11662,1090 11662,1090 L 11594,1104 C 11594,1104 11594,1104 11593,1104 L 11527,1121 C 11527,1121 11527,1121 11527,1121 L 11460,1141 C 11460,1141 11460,1141 11460,1141 L 11396,1163 C 11396,1163 11396,1163 11396,1163 L 11333,1188 C 11333,1188 11333,1188 11333,1188 L 11271,1216 C 11271,1216 11271,1216 11270,1216 L 11211,1246 C 11211,1246 11211,1246 11211,1246 L 11153,1278 C 11153,1278 11153,1278 11152,1278 L 11097,1313 C 11097,1313 11097,1313 11097,1313 L 11043,1350 C 11043,1350 11043,1350 11043,1350 L 10992,1389 C 10992,1389 10992,1389 10992,1389 L 10942,1430 C 10942,1430 10942,1430 10942,1430 L 10896,1474 C 10896,1474 10896,1474 10896,1474 L 10852,1519 C 10852,1519 10852,1519 10852,1519 L 10811,1566 C 10811,1566 10811,1566 10811,1566 L 10772,1614 C 10772,1614 10772,1614 10772,1614 L 10737,1664 C 10737,1664 10737,1664 10737,1664 L 10705,1715 C 10705,1715 10705,1715 10705,1715 L 10677,1768 C 10677,1768 10677,1768 10677,1768 L 10651,1822 C 10651,1822 10651,1822 10651,1822 L 10628,1876 C 10628,1876 10628,1876 10628,1876 L 10609,1932 C 10609,1932 10609,1932 10609,1932 L 10606,1943 9749,2271 C 9745,2273 9745,2278 9749,2280 L 9999,2375 10566,2592 10570,2668 10570,2679 C 10570,2760 10699,3064 10519,3130 10114,3211 9466,5563 9466,5563 L 10013,5210 C 10013,5210 9798,4560 10195,3698 10439,3167 10576,3792 10576,3792 10576,3792 10669,4358 11634,4012 12599,3667 12527,4074 12527,4074 12527,4074 12294,5553 11815,5888 11336,6222 12964,5607 12964,5607 12964,5607 12868,6268 12659,6505 12413,6786 12019,6926 11653,6997 11460,7034 11129,6970 11064,6955 11098,6985 11535,7337 13242,7223 15022,7104 14615,7031 14615,7031 14615,7031 14214,6927 14083,6780 13970,6652 13894,6462 13921,6293 14043,5554 14214,4781 13985,4043 13898,3767 13713,3532 13597,3266 13517,3081 13467,3116 13385,2699 13384,2683 13385,2667 13384,2661 L 13384,2218 13384,2218 13384,2217 C 13385,2179 13381,2141 13377,2103 13377,2103 13377,2103 13377,2103 L 13369,2046 C 13369,2046 13369,2045 13369,2045 L 13356,1989 C 13356,1989 13356,1989 13356,1989 L 13341,1933 C 13341,1932 13341,1932 13341,1932 L 13322,1877 C 13322,1877 13322,1877 13322,1877 L 13299,1822 C 13299,1822 13299,1822 13299,1822 L 13268,1757 C 13337,1659 13366,1476 13301,1222 13235,967 13072,640 12755,256 12755,255 12754,255 12753,255 L 12753,255 Z M 11064,6955 C 11062,6954 11048,6945 11048,6945 11036,6946 11043,6950 11064,6955 L 11064,6955 Z M 11975,1867 C 12025,1867 12074,1881 12118,1905 12118,1905 12118,1905 12118,1905 12161,1930 12198,1965 12223,2008 L 12223,2008 C 12248,2051 12261,2099 12261,2149 12261,2198 12248,2246 12223,2290 12223,2290 12223,2290 12223,2290 12198,2332 12161,2368 12118,2392 12118,2393 12118,2393 12118,2393 12074,2417 12025,2430 11975,2430 11925,2430 11876,2417 11832,2393 11832,2393 11832,2393 11832,2392 11789,2368 11753,2332 11727,2290 11727,2290 11727,2290 11727,2290 11703,2246 11690,2198 11690,2149 11690,2099 11703,2051 11727,2008 11727,2008 11727,2008 11727,2008 11753,1965 11789,1930 11832,1905 11832,1905 11832,1905 11832,1905 11876,1881 11925,1867 11975,1867 L 11975,1867 Z"/>
         <path fill="none" stroke="rgb(0,0,0)" stroke-width="9" stroke-linejoin="round" d="M 12753,255 C 12750,254 12747,256 12747,259 12774,667 12686,941 12553,1163 L 12490,1141 C 12490,1141 12490,1141 12490,1141 L 12424,1121 C 12424,1121 12424,1121 12424,1121 L 12357,1104 C 12357,1104 12356,1104 12356,1104 L 12289,1090 C 12289,1090 12289,1090 12289,1090 L 12220,1079 C 12220,1079 12220,1079 12220,1079 L 12151,1070 C 12151,1070 12150,1070 12150,1070 L 12081,1064 C 12081,1064 12081,1064 12081,1064 L 12010,1061 C 12010,1061 12010,1061 12010,1061 L 11940,1061 C 11940,1061 11940,1061 11940,1061 L 11870,1064 C 11870,1064 11870,1064 11870,1064 L 11800,1070 C 11800,1070 11800,1070 11800,1070 L 11731,1079 C 11731,1079 11731,1079 11731,1079 L 11662,1090 C 11662,1090 11662,1090 11662,1090 L 11594,1104 C 11594,1104 11594,1104 11593,1104 L 11527,1121 C 11527,1121 11527,1121 11527,1121 L 11460,1141 C 11460,1141 11460,1141 11460,1141 L 11396,1163 C 11396,1163 11396,1163 11396,1163 L 11333,1188 C 11333,1188 11333,1188 11333,1188 L 11271,1216 C 11271,1216 11271,1216 11270,1216 L 11211,1246 C 11211,1246 11211,1246 11211,1246 L 11153,1278 C 11153,1278 11153,1278 11152,1278 L 11097,1313 C 11097,1313 11097,1313 11097,1313 L 11043,1350 C 11043,1350 11043,1350 11043,1350 L 10992,1389 C 10992,1389 10992,1389 10992,1389 L 10942,1430 C 10942,1430 10942,1430 10942,1430 L 10896,1474 C 10896,1474 10896,1474 10896,1474 L 10852,1519 C 10852,1519 10852,1519 10852,1519 L 10811,1566 C 10811,1566 10811,1566 10811,1566 L 10772,1614 C 10772,1614 10772,1614 10772,1614 L 10737,1664 C 10737,1664 10737,1664 10737,1664 L 10705,1715 C 10705,1715 10705,1715 10705,1715 L 10677,1768 C 10677,1768 10677,1768 10677,1768 L 10651,1822 C 10651,1822 10651,1822 10651,1822 L 10628,1876 C 10628,1876 10628,1876 10628,1876 L 10609,1932 C 10609,1932 10609,1932 10609,1932 L 10606,1943 9749,2271 C 9745,2273 9745,2278 9749,2280 L 9999,2375 10566,2592 10570,2668 10570,2679 C 10570,2760 10699,3064 10519,3130 10114,3211 9466,5563 9466,5563 L 10013,5210 C 10013,5210 9798,4560 10195,3698 10439,3167 10576,3792 10576,3792 10576,3792 10669,4358 11634,4012 12599,3667 12527,4074 12527,4074 12527,4074 12294,5553 11815,5888 11336,6222 12964,5607 12964,5607 12964,5607 12868,6268 12659,6505 12413,6786 12019,6926 11653,6997 11460,7034 11129,6970 11064,6955 11098,6985 11535,7337 13242,7223 15022,7104 14615,7031 14615,7031 14615,7031 14214,6927 14083,6780 13970,6652 13894,6462 13921,6293 14043,5554 14214,4781 13985,4043 13898,3767 13713,3532 13597,3266 13517,3081 13467,3116 13385,2699 13384,2683 13385,2667 13384,2661 L 13384,2218 13384,2218 13384,2217 C 13385,2179 13381,2141 13377,2103 13377,2103 13377,2103 13377,2103 L 13369,2046 C 13369,2046 13369,2045 13369,2045 L 13356,1989 C 13356,1989 13356,1989 13356,1989 L 13341,1933 C 13341,1932 13341,1932 13341,1932 L 13322,1877 C 13322,1877 13322,1877 13322,1877 L 13299,1822 C 13299,1822 13299,1822 13299,1822 L 13268,1757 C 13337,1659 13366,1476 13301,1222 13235,967 13072,640 12755,256 12755,255 12754,255 12753,255 L 12753,255 Z"/>
         <path fill="none" stroke="rgb(0,0,0)" stroke-width="9" stroke-linejoin="round" d="M 11064,6955 C 11062,6954 11048,6945 11048,6945 11036,6946 11043,6950 11064,6955 Z"/>
         <path fill="none" stroke="rgb(0,0,0)" stroke-width="9" stroke-linejoin="round" d="M 11975,1867 C 12025,1867 12074,1881 12118,1905 12118,1905 12118,1905 12118,1905 12161,1930 12198,1965 12223,2008 L 12223,2008 C 12248,2051 12261,2099 12261,2149 12261,2198 12248,2246 12223,2290 12223,2290 12223,2290 12223,2290 12198,2332 12161,2368 12118,2392 12118,2393 12118,2393 12118,2393 12074,2417 12025,2430 11975,2430 11925,2430 11876,2417 11832,2393 11832,2393 11832,2393 11832,2392 11789,2368 11753,2332 11727,2290 11727,2290 11727,2290 11727,2290 11703,2246 11690,2198 11690,2149 11690,2099 11703,2051 11727,2008 11727,2008 11727,2008 11727,2008 11753,1965 11789,1930 11832,1905 11832,1905 11832,1905 11832,1905 11876,1881 11925,1867 11975,1867 L 11975,1867 Z"/>
        </g>
       </g>
      </g>
     </g>
    </g>
   </g>
  </g>
 </g>
</svg>