<?xml version="1.0" encoding="UTF-8"?>
<!DOCTYPE svg PUBLIC "-//W3C//DTD SVG 1.1//EN" "http://www.w3.org/Graphics/SVG/1.1/DTD/svg11.dtd">
<svg version="1.2" width="40mm" height="40mm" viewBox="0 0 4000 4000" preserveAspectRatio="xMidYMid" fill-rule="evenodd" stroke-width="28.222" stroke-linejoin="round" xmlns="http://www.w3.org/2000/svg" xmlns:ooo="http://xml.openoffice.org/svg/export" xmlns:xlink="http://www.w3.org/1999/xlink" xmlns:presentation="http://sun.com/xmlns/staroffice/presentation" xmlns:smil="http://www.w3.org/2001/SMIL20/" xmlns:anim="urn:oasis:names:tc:opendocument:xmlns:animation:1.0" xml:space="preserve">
 <defs class="ClipPathGroup">
  <clipPath id="presentation_clip_path" clipPathUnits="userSpaceOnUse">
   <rect x="0" y="0" width="4000" height="4000"/>
  </clipPath>
  <clipPath id="presentation_clip_path_shrink" clipPathUnits="userSpaceOnUse">
   <rect x="4" y="4" width="3992" height="3992"/>
  </clipPath>
 </defs>
 <defs class="TextShapeIndex">
  <g ooo:slide="id1" ooo:id-list="id3 id4 id5 id6 id7 id8 id9 id10"/>
 </defs>
 <defs class="EmbeddedBulletChars">
  <g id="bullet-char-template-57356" transform="scale(0.00048828125,-0.00048828125)">
   <path d="M 580,1141 L 1163,571 580,0 -4,571 580,1141 Z"/>
  </g>
  <g id="bullet-char-template-57354" transform="scale(0.00048828125,-0.00048828125)">
   <path d="M 8,1128 L 1137,1128 1137,0 8,0 8,1128 Z"/>
  </g>
  <g id="bullet-char-template-10146" transform="scale(0.00048828125,-0.00048828125)">
   <path d="M 174,0 L 602,739 174,1481 1456,739 174,0 Z M 1358,739 L 309,1346 659,739 1358,739 Z"/>
  </g>
  <g id="bullet-char-template-10132" transform="scale(0.00048828125,-0.00048828125)">
   <path d="M 2015,739 L 1276,0 717,0 1260,543 174,543 174,936 1260,936 717,1481 1274,1481 2015,739 Z"/>
  </g>
  <g id="bullet-char-template-10007" transform="scale(0.00048828125,-0.00048828125)">
   <path d="M 0,-2 C -7,14 -16,27 -25,37 L 356,567 C 262,823 215,952 215,954 215,979 228,992 255,992 264,992 276,990 289,987 310,991 331,999 354,1012 L 381,999 492,748 772,1049 836,1024 860,1049 C 881,1039 901,1025 922,1006 886,937 835,863 770,784 769,783 710,716 594,584 L 774,223 C 774,196 753,168 711,139 L 727,119 C 717,90 699,76 672,76 641,76 570,178 457,381 L 164,-76 C 142,-110 111,-127 72,-127 30,-127 9,-110 8,-76 1,-67 -2,-52 -2,-32 -2,-23 -1,-13 0,-2 Z"/>
  </g>
  <g id="bullet-char-template-10004" transform="scale(0.00048828125,-0.00048828125)">
   <path d="M 285,-33 C 182,-33 111,30 74,156 52,228 41,333 41,471 41,549 55,616 82,672 116,743 169,778 240,778 293,778 328,747 346,684 L 369,508 C 377,444 397,411 428,410 L 1163,1116 C 1174,1127 1196,1133 1229,1133 1271,1133 1292,1118 1292,1087 L 1292,965 C 1292,929 1282,901 1262,881 L 442,47 C 390,-6 338,-33 285,-33 Z"/>
  </g>
  <g id="bullet-char-template-9679" transform="scale(0.00048828125,-0.00048828125)">
   <path d="M 813,0 C 632,0 489,54 383,161 276,268 223,411 223,592 223,773 276,916 383,1023 489,1130 632,1184 813,1184 992,1184 1136,1130 1245,1023 1353,916 1407,772 1407,592 1407,412 1353,268 1245,161 1136,54 992,0 813,0 Z"/>
  </g>
  <g id="bullet-char-template-8226" transform="scale(0.00048828125,-0.00048828125)">
   <path d="M 346,457 C 273,457 209,483 155,535 101,586 74,649 74,723 74,796 101,859 155,911 209,963 273,989 346,989 419,989 480,963 531,910 582,859 608,796 608,723 608,648 583,586 532,535 482,483 420,457 346,457 Z"/>
  </g>
  <g id="bullet-char-template-8211" transform="scale(0.00048828125,-0.00048828125)">
   <path d="M -4,459 L 1135,459 1135,606 -4,606 -4,459 Z"/>
  </g>
  <g id="bullet-char-template-61548" transform="scale(0.00048828125,-0.00048828125)">
   <path d="M 173,740 C 173,903 231,1043 346,1159 462,1274 601,1332 765,1332 928,1332 1067,1274 1183,1159 1299,1043 1357,903 1357,740 1357,577 1299,437 1183,322 1067,206 928,148 765,148 601,148 462,206 346,322 231,437 173,577 173,740 Z"/>
  </g>
 </defs>
 <g>
  <g id="id2" class="Master_Slide">
   <g id="bg-id2" class="Background"/>
   <g id="bo-id2" class="BackgroundObjects"/>
  </g>
 </g>
 <g class="SlideGroup">
  <g>
   <g id="container-id1">
    <g id="id1" class="Slide" clip-path="url(#presentation_clip_path)">
     <g class="Page">
      <g class="com.sun.star.drawing.ClosedBezierShape">
       <g id="id3">
        <rect class="BoundingBox" stroke="none" fill="none" x="0" y="0" width="4001" height="4001"/>
        <path fill="rgb(0,255,255)" stroke="none" d="M 3248,2000 C 3248,1971 3247,1940 3245,1911 L 4000,1911 4000,2000 4000,2089 3245,2089 C 3247,2060 3248,2030 3248,2000 Z M 2000,753 C 1971,753 1940,754 1911,756 L 1911,0 2000,0 2089,0 2089,756 C 2060,754 2030,753 2000,753 Z M 753,2001 C 753,2030 754,2060 756,2089 L 0,2089 0,2000 0,1911 756,1911 C 754,1940 753,1971 753,2001 Z M 2000,3248 C 2030,3248 2060,3247 2089,3245 L 2089,4000 2000,4000 1911,4000 1911,3245 C 1940,3247 1971,3248 2000,3248 Z"/>
       </g>
      </g>
      <g class="com.sun.star.drawing.ClosedBezierShape">
       <g id="id4">
        <rect class="BoundingBox" stroke="none" fill="none" x="756" y="756" width="2489" height="2489"/>
        <path fill="rgb(0,255,255)" stroke="none" d="M 2734,2426 C 2660,2554 2554,2660 2426,2734 2322,2794 2208,2831 2089,2843 L 2089,2089 2843,2089 C 2831,2208 2794,2322 2734,2426 Z M 1583,2734 C 1455,2660 1349,2554 1275,2426 1215,2322 1178,2208 1166,2089 L 1911,2089 1911,2842 C 1796,2829 1684,2792 1583,2734 Z M 1275,1583 C 1349,1455 1455,1349 1583,1275 1684,1217 1796,1180 1911,1167 L 1911,1911 1167,1911 C 1180,1796 1217,1684 1275,1583 Z M 2426,1275 C 2554,1349 2660,1455 2734,1583 2792,1684 2829,1796 2842,1911 L 2089,1911 2089,1166 C 2208,1178 2322,1215 2426,1275 Z M 2917,2531 C 2995,2396 3041,2245 3054,2089 L 3244,2089 C 3239,2168 3226,2247 3206,2323 3177,2428 3136,2529 3081,2624 3026,2719 2959,2806 2882,2882 2806,2959 2719,3026 2624,3081 2529,3136 2428,3177 2323,3206 2247,3226 2168,3239 2089,3244 L 2089,3054 C 2245,3041 2396,2995 2531,2917 2691,2824 2824,2691 2917,2531 Z M 2917,1478 C 2824,1318 2691,1185 2531,1093 2396,1015 2245,967 2089,955 L 2089,756 C 2168,762 2247,775 2323,796 2428,823 2529,865 2624,920 2719,975 2806,1041 2882,1118 2959,1195 3026,1281 3081,1377 3136,1472 3177,1573 3206,1677 3226,1754 3239,1831 3244,1911 L 3053,1911 C 3040,1759 2993,1611 2917,1478 Z M 1478,1093 C 1318,1185 1185,1318 1093,1478 1016,1611 969,1759 956,1911 L 756,1911 C 762,1831 775,1754 796,1677 823,1573 865,1472 920,1377 975,1281 1041,1195 1118,1118 1195,1041 1281,975 1377,920 1472,865 1573,823 1677,796 1754,775 1831,762 1911,756 L 1911,956 C 1759,969 1611,1016 1478,1093 Z M 1093,2531 C 1185,2691 1318,2824 1478,2917 1611,2993 1759,3040 1911,3053 L 1911,3244 C 1831,3239 1754,3226 1677,3206 1573,3177 1472,3136 1377,3081 1281,3026 1195,2959 1118,2882 1041,2806 975,2719 920,2624 865,2529 823,2428 796,2323 775,2247 762,2168 756,2089 L 955,2089 C 967,2245 1015,2396 1093,2531 Z"/>
       </g>
      </g>
      <g class="com.sun.star.drawing.ClosedBezierShape">
       <g id="id5">
        <rect class="BoundingBox" stroke="none" fill="none" x="0" y="0" width="4001" height="4001"/>
        <path fill="rgb(255,0,255)" stroke="none" d="M 3248,2000 C 3248,1971 3247,1940 3245,1911 L 4000,1911 4000,2000 4000,2089 3245,2089 C 3247,2060 3248,2030 3248,2000 Z M 2000,753 C 1971,753 1940,754 1911,756 L 1911,0 2000,0 2089,0 2089,756 C 2060,754 2030,753 2000,753 Z M 753,2001 C 753,2030 754,2060 756,2089 L 0,2089 0,2000 0,1911 756,1911 C 754,1940 753,1971 753,2001 Z M 2000,3248 C 2030,3248 2060,3247 2089,3245 L 2089,4000 2000,4000 1911,4000 1911,3245 C 1940,3247 1971,3248 2000,3248 Z"/>
       </g>
      </g>
      <g class="com.sun.star.drawing.ClosedBezierShape">
       <g id="id6">
        <rect class="BoundingBox" stroke="none" fill="none" x="756" y="756" width="2489" height="2489"/>
        <path fill="rgb(255,0,255)" stroke="none" d="M 2734,2426 C 2660,2554 2554,2660 2426,2734 2322,2794 2208,2831 2089,2843 L 2089,2089 2843,2089 C 2831,2208 2794,2322 2734,2426 Z M 1583,2734 C 1455,2660 1349,2554 1275,2426 1215,2322 1178,2208 1166,2089 L 1911,2089 1911,2842 C 1796,2829 1684,2792 1583,2734 Z M 1275,1583 C 1349,1455 1455,1349 1583,1275 1684,1217 1796,1180 1911,1167 L 1911,1911 1167,1911 C 1180,1796 1217,1684 1275,1583 Z M 2426,1275 C 2554,1349 2660,1455 2734,1583 2792,1684 2829,1796 2842,1911 L 2089,1911 2089,1166 C 2208,1178 2322,1215 2426,1275 Z M 2917,2531 C 2995,2396 3041,2245 3054,2089 L 3244,2089 C 3239,2168 3226,2247 3206,2323 3177,2428 3136,2529 3081,2624 3026,2719 2959,2806 2882,2882 2806,2959 2719,3026 2624,3081 2529,3136 2428,3177 2323,3206 2247,3226 2168,3239 2089,3244 L 2089,3054 C 2245,3041 2396,2995 2531,2917 2691,2824 2824,2691 2917,2531 Z M 2917,1478 C 2824,1318 2691,1185 2531,1093 2396,1015 2245,967 2089,955 L 2089,756 C 2168,762 2247,775 2323,796 2428,823 2529,865 2624,920 2719,975 2806,1041 2882,1118 2959,1195 3026,1281 3081,1377 3136,1472 3177,1573 3206,1677 3226,1754 3239,1831 3244,1911 L 3053,1911 C 3040,1759 2993,1611 2917,1478 Z M 1478,1093 C 1318,1185 1185,1318 1093,1478 1016,1611 969,1759 956,1911 L 756,1911 C 762,1831 775,1754 796,1677 823,1573 865,1472 920,1377 975,1281 1041,1195 1118,1118 1195,1041 1281,975 1377,920 1472,865 1573,823 1677,796 1754,775 1831,762 1911,756 L 1911,956 C 1759,969 1611,1016 1478,1093 Z M 1093,2531 C 1185,2691 1318,2824 1478,2917 1611,2993 1759,3040 1911,3053 L 1911,3244 C 1831,3239 1754,3226 1677,3206 1573,3177 1472,3136 1377,3081 1281,3026 1195,2959 1118,2882 1041,2806 975,2719 920,2624 865,2529 823,2428 796,2323 775,2247 762,2168 756,2089 L 955,2089 C 967,2245 1015,2396 1093,2531 Z"/>
       </g>
      </g>
      <g class="com.sun.star.drawing.ClosedBezierShape">
       <g id="id7">
        <rect class="BoundingBox" stroke="none" fill="none" x="0" y="0" width="4001" height="4001"/>
        <path fill="rgb(255,255,0)" stroke="none" d="M 3248,2000 C 3248,1971 3247,1940 3245,1911 L 4000,1911 4000,2000 4000,2089 3245,2089 C 3247,2060 3248,2030 3248,2000 Z M 2000,753 C 1971,753 1940,754 1911,756 L 1911,0 2000,0 2089,0 2089,756 C 2060,754 2030,753 2000,753 Z M 753,2001 C 753,2030 754,2060 756,2089 L 0,2089 0,2000 0,1911 756,1911 C 754,1940 753,1971 753,2001 Z M 2000,3248 C 2030,3248 2060,3247 2089,3245 L 2089,4000 2000,4000 1911,4000 1911,3245 C 1940,3247 1971,3248 2000,3248 Z"/>
       </g>
      </g>
      <g class="com.sun.star.drawing.ClosedBezierShape">
       <g id="id8">
        <rect class="BoundingBox" stroke="none" fill="none" x="756" y="756" width="2489" height="2489"/>
        <path fill="rgb(255,255,0)" stroke="none" d="M 2734,2426 C 2660,2554 2554,2660 2426,2734 2322,2794 2208,2831 2089,2843 L 2089,2089 2843,2089 C 2831,2208 2794,2322 2734,2426 Z M 1583,2734 C 1455,2660 1349,2554 1275,2426 1215,2322 1178,2208 1166,2089 L 1911,2089 1911,2842 C 1796,2829 1684,2792 1583,2734 Z M 1275,1583 C 1349,1455 1455,1349 1583,1275 1684,1217 1796,1180 1911,1167 L 1911,1911 1167,1911 C 1180,1796 1217,1684 1275,1583 Z M 2426,1275 C 2554,1349 2660,1455 2734,1583 2792,1684 2829,1796 2842,1911 L 2089,1911 2089,1166 C 2208,1178 2322,1215 2426,1275 Z M 2917,2531 C 2995,2396 3041,2245 3054,2089 L 3244,2089 C 3239,2168 3226,2247 3206,2323 3177,2428 3136,2529 3081,2624 3026,2719 2959,2806 2882,2882 2806,2959 2719,3026 2624,3081 2529,3136 2428,3177 2323,3206 2247,3226 2168,3239 2089,3244 L 2089,3054 C 2245,3041 2396,2995 2531,2917 2691,2824 2824,2691 2917,2531 Z M 2917,1478 C 2824,1318 2691,1185 2531,1093 2396,1015 2245,967 2089,955 L 2089,756 C 2168,762 2247,775 2323,796 2428,823 2529,865 2624,920 2719,975 2806,1041 2882,1118 2959,1195 3026,1281 3081,1377 3136,1472 3177,1573 3206,1677 3226,1754 3239,1831 3244,1911 L 3053,1911 C 3040,1759 2993,1611 2917,1478 Z M 1478,1093 C 1318,1185 1185,1318 1093,1478 1016,1611 969,1759 956,1911 L 756,1911 C 762,1831 775,1754 796,1677 823,1573 865,1472 920,1377 975,1281 1041,1195 1118,1118 1195,1041 1281,975 1377,920 1472,865 1573,823 1677,796 1754,775 1831,762 1911,756 L 1911,956 C 1759,969 1611,1016 1478,1093 Z M 1093,2531 C 1185,2691 1318,2824 1478,2917 1611,2993 1759,3040 1911,3053 L 1911,3244 C 1831,3239 1754,3226 1677,3206 1573,3177 1472,3136 1377,3081 1281,3026 1195,2959 1118,2882 1041,2806 975,2719 920,2624 865,2529 823,2428 796,2323 775,2247 762,2168 756,2089 L 955,2089 C 967,2245 1015,2396 1093,2531 Z"/>
       </g>
      </g>
      <g class="com.sun.star.drawing.ClosedBezierShape">
       <g id="id9">
        <rect class="BoundingBox" stroke="none" fill="none" x="0" y="0" width="4001" height="4001"/>
        <path fill="rgb(0,0,0)" stroke="none" d="M 3248,2000 C 3248,1971 3247,1940 3245,1911 L 4000,1911 4000,2000 4000,2089 3245,2089 C 3247,2060 3248,2030 3248,2000 Z M 2000,753 C 1971,753 1940,754 1911,756 L 1911,0 2000,0 2089,0 2089,756 C 2060,754 2030,753 2000,753 Z M 753,2001 C 753,2030 754,2060 756,2089 L 0,2089 0,2000 0,1911 756,1911 C 754,1940 753,1971 753,2001 Z M 2000,3248 C 2030,3248 2060,3247 2089,3245 L 2089,4000 2000,4000 1911,4000 1911,3245 C 1940,3247 1971,3248 2000,3248 Z"/>
       </g>
      </g>
      <g class="com.sun.star.drawing.ClosedBezierShape">
       <g id="id10">
        <rect class="BoundingBox" stroke="none" fill="none" x="756" y="756" width="2489" height="2489"/>
        <path fill="rgb(0,0,0)" stroke="none" d="M 2734,2426 C 2660,2554 2554,2660 2426,2734 2322,2794 2208,2831 2089,2843 L 2089,2089 2843,2089 C 2831,2208 2794,2322 2734,2426 Z M 1583,2734 C 1455,2660 1349,2554 1275,2426 1215,2322 1178,2208 1166,2089 L 1911,2089 1911,2842 C 1796,2829 1684,2792 1583,2734 Z M 1275,1583 C 1349,1455 1455,1349 1583,1275 1684,1217 1796,1180 1911,1167 L 1911,1911 1167,1911 C 1180,1796 1217,1684 1275,1583 Z M 2426,1275 C 2554,1349 2660,1455 2734,1583 2792,1684 2829,1796 2842,1911 L 2089,1911 2089,1166 C 2208,1178 2322,1215 2426,1275 Z M 2917,2531 C 2995,2396 3041,2245 3054,2089 L 3244,2089 C 3239,2168 3226,2247 3206,2323 3177,2428 3136,2529 3081,2624 3026,2719 2959,2806 2882,2882 2806,2959 2719,3026 2624,3081 2529,3136 2428,3177 2323,3206 2247,3226 2168,3239 2089,3244 L 2089,3054 C 2245,3041 2396,2995 2531,2917 2691,2824 2824,2691 2917,2531 Z M 2917,1478 C 2824,1318 2691,1185 2531,1093 2396,1015 2245,967 2089,955 L 2089,756 C 2168,762 2247,775 2323,796 2428,823 2529,865 2624,920 2719,975 2806,1041 2882,1118 2959,1195 3026,1281 3081,1377 3136,1472 3177,1573 3206,1677 3226,1754 3239,1831 3244,1911 L 3053,1911 C 3040,1759 2993,1611 2917,1478 Z M 1478,1093 C 1318,1185 1185,1318 1093,1478 1016,1611 969,1759 956,1911 L 756,1911 C 762,1831 775,1754 796,1677 823,1573 865,1472 920,1377 975,1281 1041,1195 1118,1118 1195,1041 1281,975 1377,920 1472,865 1573,823 1677,796 1754,775 1831,762 1911,756 L 1911,956 C 1759,969 1611,1016 1478,1093 Z M 1093,2531 C 1185,2691 1318,2824 1478,2917 1611,2993 1759,3040 1911,3053 L 1911,3244 C 1831,3239 1754,3226 1677,3206 1573,3177 1472,3136 1377,3081 1281,3026 1195,2959 1118,2882 1041,2806 975,2719 920,2624 865,2529 823,2428 796,2323 775,2247 762,2168 756,2089 L 955,2089 C 967,2245 1015,2396 1093,2531 Z"/>
       </g>
      </g>
     </g>
    </g>
   </g>
  </g>
 </g>
</svg>